<svg xmlns="http://www.w3.org/2000/svg" width="572.684" height="113.779" viewBox="0 0 572.684 113.779">
  <path id="Subtraction_3" data-name="Subtraction 3" d="M-734.317,138.779H-1307V25h238.432a48.072,48.072,0,0,0-4.323,20.035,48.15,48.15,0,0,0,3.808,18.861A48.292,48.292,0,0,0-1058.7,79.3a48.291,48.291,0,0,0,15.4,10.384,48.151,48.151,0,0,0,18.861,3.808,48.155,48.155,0,0,0,18.862-3.808,48.3,48.3,0,0,0,15.4-10.384,48.3,48.3,0,0,0,10.385-15.4,48.154,48.154,0,0,0,3.808-18.861A48.077,48.077,0,0,0-980.3,25h245.984V138.778Z" transform="translate(1307 -25)" fill="#fff"/>
</svg>
