<svg id="settings_6_" data-name="settings (6)" xmlns="http://www.w3.org/2000/svg" width="16.428" height="16.428" viewBox="0 0 16.428 16.428">
  <circle id="Ellipse_17" data-name="Ellipse 17" cx="2" cy="2" r="2" transform="translate(6 6)" stroke-width="2" stroke="#b4b4b4" stroke-linecap="round" stroke-linejoin="round" fill="none"/>
  <path id="Path_1302" data-name="Path 1302" d="M13.067,10.181a1.082,1.082,0,0,0,.216,1.194l.039.039a1.312,1.312,0,1,1-1.856,1.856l-.039-.039A1.091,1.091,0,0,0,9.578,14v.111a1.312,1.312,0,0,1-2.623,0v-.059a1.082,1.082,0,0,0-.708-.99,1.082,1.082,0,0,0-1.194.216l-.039.039a1.312,1.312,0,1,1-1.856-1.856l.039-.039a1.091,1.091,0,0,0-.774-1.849H2.312a1.312,1.312,0,1,1,0-2.623h.059a1.082,1.082,0,0,0,.99-.708,1.082,1.082,0,0,0-.216-1.194l-.039-.039A1.312,1.312,0,1,1,4.961,3.158L5,3.2a1.082,1.082,0,0,0,1.194.216h.052a1.082,1.082,0,0,0,.656-.99V2.312a1.312,1.312,0,1,1,2.623,0v.059a1.091,1.091,0,0,0,1.849.774l.039-.039A1.312,1.312,0,1,1,13.27,4.961L13.231,5a1.082,1.082,0,0,0-.216,1.194v.052A1.082,1.082,0,0,0,14,6.9h.111a1.312,1.312,0,0,1,0,2.623h-.059A1.082,1.082,0,0,0,13.067,10.181Z" fill="none" stroke="#b4b4b4" stroke-linecap="round" stroke-linejoin="round" stroke-width="2"/>
</svg>
