<svg xmlns="http://www.w3.org/2000/svg" width="19.174" height="55.138" viewBox="0 0 19.174 55.138">
  <g id="coke-bottle" transform="translate(-135.951)">
    <g id="Group_364" data-name="Group 364" transform="translate(135.951)">
      <g id="Group_363" data-name="Group 363" transform="translate(0)">
        <path id="Path_120" data-name="Path 120" d="M137.882,33.889l.145.924.354-.092a7.434,7.434,0,0,1,1.876-.235,10.19,10.19,0,0,1,7.683,3.887,10.067,10.067,0,0,0,6.414,3.773l.383.06v-.387a50.81,50.81,0,0,1,.823-7.936c.1-.631.2-1.282.3-1.924a23.688,23.688,0,0,0-1.179-11.775q-.231-.64-.465-1.278c-1.739-4.759-3.381-9.256-2.491-14.47A2.52,2.52,0,0,0,150.08,0h-6.722a2.52,2.52,0,0,0-1.638,4.435c.89,5.214-.752,9.71-2.491,14.47q-.233.638-.465,1.278a23.688,23.688,0,0,0-1.179,11.775C137.68,32.6,137.783,33.256,137.882,33.889Z" transform="translate(-137.132)" fill="#fff"/>
        <path id="Path_121" data-name="Path 121" d="M154.723,286.377a17.444,17.444,0,0,1-1.026-4.238l-.041-.348-.345.061a7.784,7.784,0,0,1-1.346.115,9.982,9.982,0,0,1-7.038-3.152c-.286-.307-.565-.627-.833-.936a11.509,11.509,0,0,0-2.965-2.687,8.633,8.633,0,0,0-3.659-1.058l-.407-.03.056.4c.517,3.766.783,7.81-.764,11.869a4.457,4.457,0,0,0,.085,3.9,5.447,5.447,0,0,0,4.084,2.346c1.252.2,3.067.295,4.152.35.388.02,1.341.02,1.729,0,1.085-.056,2.9-.15,4.152-.35a5.448,5.448,0,0,0,4.084-2.346A4.458,4.458,0,0,0,154.723,286.377Z" transform="translate(-135.951 -237.848)" fill="#fff"/>
      </g>
    </g>
  </g>
</svg>
