<svg xmlns="http://www.w3.org/2000/svg" width="8.046" height="23.138" viewBox="0 0 8.046 23.138">
  <g id="coke-bottle" transform="translate(-135.951)">
    <g id="Group_364" data-name="Group 364" transform="translate(135.951)">
      <g id="Group_363" data-name="Group 363" transform="translate(0)">
        <path id="Path_120" data-name="Path 120" d="M137.551,14.221l.061.388.148-.039a3.12,3.12,0,0,1,.787-.1,4.276,4.276,0,0,1,3.224,1.631,4.225,4.225,0,0,0,2.692,1.583l.161.025v-.163a21.323,21.323,0,0,1,.345-3.33c.042-.265.084-.538.124-.808a9.941,9.941,0,0,0-.495-4.941q-.1-.269-.2-.536c-.73-2-1.419-3.884-1.045-6.072A1.057,1.057,0,0,0,142.67,0H139.85a1.057,1.057,0,0,0-.688,1.861c.374,2.188-.316,4.075-1.045,6.072q-.1.268-.2.536a9.94,9.94,0,0,0-.495,4.941C137.467,13.681,137.51,13.955,137.551,14.221Z" transform="translate(-137.237)" fill="#e61d2b"/>
        <path id="Path_121" data-name="Path 121" d="M143.828,279.253a7.32,7.32,0,0,1-.43-1.778l-.017-.146-.145.026a3.266,3.266,0,0,1-.565.048,4.188,4.188,0,0,1-2.954-1.323c-.12-.129-.237-.263-.35-.393a4.83,4.83,0,0,0-1.244-1.128,3.623,3.623,0,0,0-1.535-.444l-.171-.013.023.17a9.846,9.846,0,0,1-.321,4.981,1.87,1.87,0,0,0,.036,1.636,2.286,2.286,0,0,0,1.714.984c.525.084,1.287.124,1.742.147.163.008.563.008.726,0,.455-.024,1.217-.063,1.742-.147a2.286,2.286,0,0,0,1.714-.984A1.871,1.871,0,0,0,143.828,279.253Z" transform="translate(-135.951 -258.889)" fill="#e61d2b"/>
      </g>
    </g>
  </g>
</svg>
