<svg xmlns="http://www.w3.org/2000/svg" width="340.325" height="433.232" viewBox="0 0 340.325 433.232">
  <path id="epl" d="M72.131,41.814a166.062,166.062,0,0,1,33.856,21.544c-.839-5.036-4.757-28.819-7.275-43.369,10.912,7.555,37.213,25.741,45.607,31.617C147.677,40.975,159.988,6,159.988,6s21.824,34.975,25.182,40.851c4.757-4.477,30.5-33.576,37.213-40.851,1.4,16.508,2.518,40.571,3.078,43.928a166.275,166.275,0,0,1,27.98-28.819c-7.275,14.27-10.632,33.856-12.311,49.8a186.081,186.081,0,0,0-51.483-7.275,190.784,190.784,0,0,0-94.572,24.9C90.318,73.152,82.764,54.125,72.131,41.814Zm262.451,300.5L319.473,325.53c-4.2,45.048-26.581,83.66-67.152,110.52l-6.435-24.342c-34.7,24.9-93.733,40.851-144.656,12.311,6.435-32.177,11.752-64.913,0-104.085C72.971,363.3,48.069,380.65,48.069,380.65,29.042,348.474,30.721,284.4,36.317,265.373L4.7,275.166c0-21.545,15.669-67.152,38.053-92.893L23.447,179.2a187.585,187.585,0,0,1,58.2-69.11c-7.555,12.311-7.555,40.851,13.99,51.763C86.4,145.9,85.562,126.034,94.8,115.4c9.793-10.632,25.741-6.715,35.814,1.4-3.078-8.954-12.311-20.146-25.182-20.985,25.182-13.151,54.561-20.145,84.779-20.145,5.876,0,11.472.56,16.788.839,8.954,3.358,21.824,15.949,27.98,24.063a44.426,44.426,0,0,0-4.757-20.146c33.016,8.114,48.965,21.544,55.4,27.98,1.4,14.27,5.6,22.664,11.472,36.374-10.632-11.752-37.493-31.337-50.644-35.814,0,0-1.4,12.311-5.6,18.187-25.741-18.467-38.053-23.223-38.053-23.223-28.539,2.8-46.167,13.99-56.24,22.384l8.394,7.275c-16.788,5.036-27.98,19.866-27.98,19.866,0,.56,15.109,2.518,15.109,2.518S140.4,173.6,162.786,184.791c19.026,9.233,45.887-2.238,71.628,8.114-16.788-19.306-28.26-28.26-28.26-28.26a70.187,70.187,0,0,0-11.472-1.4c-5.876,0-14.829,1.4-24.063-2.518-4.757-1.679-10.073-5.036-13.99-7.555,0,0,11.752-12.311,29.1-14.829,0,0,15.669,4.2,27.98,13.43,8.114-8.114,16.788-7.555,16.788-7.555s-8.394,8.114-5.876,17.348c12.311,10.912,25.741,26.581,25.741,26.581,13.43-7.555,43.089-5.876,49.245,1.4-7.555-10.073-19.026-18.187-27.42-25.182-.839-3.917-10.632-16.788-11.752-18.187a58,58,0,0,1,16.788,9.793,21.308,21.308,0,0,1,12.311-8.114c5.876,5.036,7.275,12.591,6.715,13.99a16.247,16.247,0,0,1-5.6,4.757l14.27,15.669,1.4-11.472C339.619,218.087,357.806,273.208,334.583,342.318ZM271.908,240.191V215.849a78.135,78.135,0,0,1-22.664-12.591c-23.5,3.358-51.763,27.14-51.763,27.14s9.793,18.187,20.146,38.053C236.093,270.41,263.514,247.466,271.908,240.191Zm23.5,44.208a42.073,42.073,0,0,0-10.073-19.306l-18.187.56s-24.9,20.985-39.731,21.544l12.591,23.5c8.394-1.679,22.664-8.394,28.819-15.109a86.474,86.474,0,0,1,3.078,27.42C280.3,317.7,291.773,304.825,295.411,284.4Zm7.555-80.582a186.725,186.725,0,0,1-16.788,12.311v24.342c6.715,7.275,13.151,13.43,18.187,24.342C313.6,248.585,311.359,224.243,302.965,203.818Z" transform="translate(-4.7 -6)" opacity="0.2"/>
</svg>
