<svg xmlns="http://www.w3.org/2000/svg" width="375" height="164" viewBox="0 0 375 164">
  <path id="Intersection_7" data-name="Intersection 7" d="M87.578,164c-2.157-.7-4.284-1.4-6.412-2.139l22.561-24.174C70.241,128.457,36.674,114.756,6,98.826V53.11C51.629,71.4,104.267,80.7,155.142,82.569l-23.61,25.324a434.68,434.68,0,0,0,100.193,11.432c30.471,0,51.2-1.021,80.118-6.77l-37.9,40.62A504.055,504.055,0,0,0,381,128.536V164ZM194.542,83.534l32.239-32.419c-58.7,0-121.884-8.15-174.947-25.258L74.395,3.176C70.5,2.187,66.605,1.109,62.74,0H262.2L244.579,17.708A525.338,525.338,0,0,0,333.924,0H381V59.279A553.6,553.6,0,0,1,217.732,83.8c-5.537,0-8.776.09-12.1.09C202.606,83.894,199.51,83.819,194.542,83.534Z" transform="translate(-6)" opacity="0.09"/>
</svg>
