<svg xmlns="http://www.w3.org/2000/svg" width="332" height="222" viewBox="0 0 332 222">
  <g id="Group_485" data-name="Group 485" transform="translate(-205 1024)">
    <rect id="Rectangle_204" data-name="Rectangle 204" width="332" height="222" transform="translate(205 -1024)" fill="none"/>
    <rect id="Rectangle_205" data-name="Rectangle 205" width="332" height="222" transform="translate(205 -1024)" fill="#00ab4a"/>
    <path id="Intersection_6" data-name="Intersection 6" d="M147.7,251.306q-1.934-1.543-3.548-2.947c-5.677-4.937-8.335-8.553-7.9-10.746.258-1.3,1.61-2.115,4.018-2.43a16.356,16.356,0,0,0,9.31-4.018,14.76,14.76,0,0,0,4.125-7.326,30.416,30.416,0,0,0-.056-13c-.755-3.738-1.912-6.608-2.375-6.942,10.781,4.542,20.345,6.846,28.429,6.846a31.166,31.166,0,0,0,15.655-3.776,26.387,26.387,0,0,0,9.08-8.713,38.487,38.487,0,0,0,5.586-16.537,25.594,25.594,0,0,0,1.208,8.005,41.335,41.335,0,0,0,7.253,13.446,74.142,74.142,0,0,0,18.365,16.087c9.31,5.989,20.931,11.348,34.545,15.931,6.919,2.329,13.023,3.51,18.14,3.51a23.656,23.656,0,0,0,10.02-1.973,16.781,16.781,0,0,0,6.523-5.37c4.788-6.55,6.054-17.464,3.764-32.439-1.861-12.168-5.668-24.12-7.5-29.863l0-.005a22.853,22.853,0,0,1-1.147-4.037,70.916,70.916,0,0,0,13.449,12.5c3.772,2.507,7.235,3.779,10.292,3.779,5.4,0,9.681-3.925,12.735-11.667,2.457-6.231,4.108-14.866,4.908-25.667a225.384,225.384,0,0,0,.358-24.586,97.678,97.678,0,0,0-1.018-12.606c3.974,5.78,7.593,11.553,10.829,17.269V251.306Zm62.327-69.623a9.62,9.62,0,0,1,.079-1.057c0,.005,0,.022,0,.049-.007.131-.026.479-.076,1.008ZM21.121,180.2l-.373-1.366V29.307H202.063a19.274,19.274,0,0,0,2.346,8.173,47.435,47.435,0,0,0,7.559,10.276c5.684,6.1,13.791,12.758,24.1,19.789,5.093,3.476,13.513,8.925,24.694,15.154,6.9,3.841,11.474,6.1,11.648,6.176-17.08-6.331-33.215-11.888-47.954-16.519C210.5,67.973,197.44,64.31,185.643,61.47c-11.124-2.678-21.416-4.694-30.59-5.991a168.722,168.722,0,0,0-23.3-1.833c-9.532,0-17.457,1.19-23.555,3.536-5.341,2.056-9.391,5.04-12.035,8.871-3.332,4.827-4.5,11.075-3.485,18.568A68.651,68.651,0,0,0,96.9,99.7c.678,1.787,1.086,2.866.931,3.056a68.333,68.333,0,0,0-14.785-1.718,50.3,50.3,0,0,0-18.562,3.4A49.171,49.171,0,0,0,50,113.409c-7.433,6.567-13.721,15.723-18.689,27.215a136.309,136.309,0,0,0-8.3,27.215A122.373,122.373,0,0,0,21.124,180.2Z" transform="translate(184.251 -1053.307)" fill="#008e3e"/>
  </g>
</svg>
