<svg xmlns="http://www.w3.org/2000/svg" width="19.765" height="23.719" viewBox="0 0 19.765 23.719">
  <g id="notification" transform="translate(-42.675)">
    <g id="Group_472" data-name="Group 472" transform="translate(42.675)">
      <g id="Group_471" data-name="Group 471" transform="translate(0)">
        <path id="Path_156" data-name="Path 156" d="M62.37,20.006l-1.7-2.829a8.4,8.4,0,0,1-1.2-4.323V10.377a6.927,6.927,0,0,0-4.942-6.627V1.977a1.977,1.977,0,0,0-3.953,0V3.751a6.927,6.927,0,0,0-4.941,6.627v2.478a8.407,8.407,0,0,1-1.2,4.322l-1.7,2.829a.5.5,0,0,0,.423.749H61.946a.494.494,0,0,0,.424-.748Z" transform="translate(-42.675)" fill="#fff"/>
      </g>
    </g>
    <g id="Group_474" data-name="Group 474" transform="translate(49.445 21.743)">
      <g id="Group_473" data-name="Group 473" transform="translate(0)">
        <path id="Path_157" data-name="Path 157" d="M188.815,469.333a3.438,3.438,0,0,0,6.224,0Z" transform="translate(-188.815 -469.333)" fill="#fff"/>
      </g>
    </g>
  </g>
</svg>
