<svg xmlns="http://www.w3.org/2000/svg" width="23.949" height="23.954" viewBox="0 0 23.949 23.954">
  <g id="long-paper-roll" transform="translate(-0.003)">
    <path id="Path_95" data-name="Path 95" d="M22.557,5.532C13.976,5.532,16.772,0,10.619,0,6.725,0,6.016,1.982,5.4,3.845,4.848,5.487.431,17.085.431,17.085l.032-.044A4.456,4.456,0,0,0,0,18.929a4.889,4.889,0,0,0,5.076,5.024c3.743,0,5.076-1.907,5.076-3.692,0-2.113-2.2-3.692-4.171-3.692-2.22,0-3.213,1.159-3.213,2.307a2.513,2.513,0,0,0,2.769,2.307.923.923,0,0,0,0-1.846c-.492,0-.923-.215-.923-.461,0-.188.486-.461,1.367-.461,1.024,0,2.325.868,2.325,1.846,0,1.606-2.024,1.846-3.23,1.846a3.036,3.036,0,0,1-3.23-3.179c0-.852.8-3.282,4.375-3.282,2.868,0,3.873,1.492,5.144,3.382,1.477,2.194,3.314,4.925,8.578,4.925a.912.912,0,0,0,.9-.819h.011s2.857-15.265,3.024-16C24.317,5.25,22.557,5.532,22.557,5.532Z" fill="#fff"/>
  </g>
</svg>
