<svg xmlns="http://www.w3.org/2000/svg" width="151.745" height="140.463" viewBox="0 0 151.745 140.463">
  <g id="Group_657" data-name="Group 657" transform="translate(261.348 -637.46)">
    <path id="Path_1306" data-name="Path 1306" d="M29.04-38.5v7.26h-10.4V0h-7.59V-31.24H.715V-38.5Zm34.705,0-13.2,23.485V0H43.01V-15.015L29.865-38.5h8.58l8.36,16.06,8.36-16.06ZM75.02-7.26H89.705V0H67.43V-38.5h7.59Zm26.565,0H117.81V0H93.995V-38.5h23.54v7.26h-15.95v8.2H116.16v7.15H101.585ZM144.265,0,136.51-13.365h-5.775V0h-7.59V-38.5h15.4a12.357,12.357,0,0,1,9.075,3.74,12.293,12.293,0,0,1,3.74,9.02,11.713,11.713,0,0,1-2.035,6.628,12.741,12.741,0,0,1-5.39,4.592L152.46,0Zm-13.53-31.4V-20.02h7.81A4.832,4.832,0,0,0,142.23-21.7a5.767,5.767,0,0,0,1.54-4.042,5.669,5.669,0,0,0-1.54-4.015,4.867,4.867,0,0,0-3.685-1.65Z" transform="translate(-262.063 755.778)" fill="#fff"/>
    <path id="Path_1307" data-name="Path 1307" d="M8.37,0,7.35-2.67H2.085L1.065,0H.225L4.3-10.5h.84L9.21,0ZM2.385-3.42h4.68l-2.34-6.1ZM15.81-10.5a3.173,3.173,0,0,1,2.34.93,3.154,3.154,0,0,1,.93,2.325,3.13,3.13,0,0,1-.93,2.318A3.187,3.187,0,0,1,15.81-4H13.035V0H12.24V-10.5Zm0,5.745a2.394,2.394,0,0,0,1.778-.7,2.433,2.433,0,0,0,.7-1.785,2.452,2.452,0,0,0-.7-1.8,2.394,2.394,0,0,0-1.778-.7H13.035v4.995Zm10.3-5.745a3.173,3.173,0,0,1,2.34.93,3.154,3.154,0,0,1,.93,2.325,3.13,3.13,0,0,1-.93,2.318A3.186,3.186,0,0,1,26.115-4H23.34V0h-.8V-10.5Zm0,5.745a2.394,2.394,0,0,0,1.778-.7,2.433,2.433,0,0,0,.7-1.785,2.452,2.452,0,0,0-.7-1.8,2.394,2.394,0,0,0-1.778-.7H23.34v4.995ZM33.645-.75H38.6V0H32.85V-10.5h.8Zm8.1-9.75h.795V0h-.795ZM51.51.165A5.265,5.265,0,0,1,47.6-1.4,5.27,5.27,0,0,1,46.05-5.25,5.27,5.27,0,0,1,47.6-9.1a5.265,5.265,0,0,1,3.915-1.567,5.247,5.247,0,0,1,2.64.682,4.865,4.865,0,0,1,1.86,1.838l-.705.4A3.976,3.976,0,0,0,53.76-9.308,4.4,4.4,0,0,0,51.51-9.9a4.486,4.486,0,0,0-3.353,1.343A4.548,4.548,0,0,0,46.845-5.25a4.548,4.548,0,0,0,1.313,3.308A4.486,4.486,0,0,0,51.51-.6a4.436,4.436,0,0,0,2.265-.6,3.946,3.946,0,0,0,1.56-1.605l.705.405A4.8,4.8,0,0,1,54.18-.533,5.268,5.268,0,0,1,51.51.165ZM66.33,0,65.31-2.67H60.045L59.025,0h-.84l4.08-10.5h.84L67.17,0ZM60.345-3.42h4.68l-2.34-6.1ZM75.9-10.5v.75H72.6V0h-.81V-9.75h-3.3v-.75Zm3.15,0h.795V0H79.05ZM92.61-1.41A5.225,5.225,0,0,1,88.77.165a5.213,5.213,0,0,1-3.84-1.583A5.232,5.232,0,0,1,83.355-5.25,5.232,5.232,0,0,1,84.93-9.082a5.213,5.213,0,0,1,3.84-1.583,5.213,5.213,0,0,1,3.84,1.583A5.232,5.232,0,0,1,94.185-5.25,5.257,5.257,0,0,1,92.61-1.41Zm-7.125-.54A4.471,4.471,0,0,0,88.77-.6a4.434,4.434,0,0,0,3.277-1.358A4.509,4.509,0,0,0,93.39-5.25a4.509,4.509,0,0,0-1.342-3.293A4.434,4.434,0,0,0,88.77-9.9a4.434,4.434,0,0,0-3.278,1.358A4.509,4.509,0,0,0,84.15-5.25,4.547,4.547,0,0,0,85.485-1.95ZM104.6-10.5h.795V0h-.705L98.49-9.03V0h-.795V-10.5h.69l6.21,9.03Z" transform="translate(-240.389 777.758)" fill="#fff"/>
    <path id="map-marker" d="M20.153,58.689C3.155,34.047,0,31.518,0,22.462a22.462,22.462,0,0,1,44.923,0c0,9.056-3.155,11.585-20.153,36.228a2.809,2.809,0,0,1-4.617,0Z" transform="translate(-207.878 637.46)" fill="#ffd6e4"/>
    <path id="Intersection_1" data-name="Intersection 1" d="M15.789,39.363C7.9,27.927,2.994,21.254,0,16.48a42.355,42.355,0,0,0,17.364-9C23.7,1.759,32.485.083,40.342,0a22.655,22.655,0,0,1,.217,3.135c0,9.056-3.156,11.586-20.154,36.228a2.809,2.809,0,0,1-4.617,0Z" transform="translate(-203.514 656.788)" fill="#722359" opacity="0.271"/>
  </g>
</svg>
