<svg xmlns="http://www.w3.org/2000/svg" width="223.183" height="223.183" viewBox="0 0 223.183 223.183">
  <path id="topography" d="M0,120.92v-.435c2.418,1.425,4.858,2.842,5.46,3.214a44.189,44.189,0,0,1,9.18,7.1,22.369,22.369,0,0,0,8.339,5.263c.539.223,1.1.446,1.8.707l1.767.677c3.638,1.395,5.505,2.332,7.06,3.757a16.04,16.04,0,0,0,6.238,3.288c.725.223,1.484.435,2.407.67l2.284.569a13.874,13.874,0,0,1,3.921,1.406,18.241,18.241,0,0,0,4.739,1.871q.895.259,1.793.506c.759.216,1.339.387,1.923.565a40.922,40.922,0,0,1,4.166,1.506,9.053,9.053,0,0,1,3.266,3.125q1.2,1.67,2.288,3.422a32.365,32.365,0,0,0,3.809,5.4,18.954,18.954,0,0,0,1.711,1.57c.867.707,3.865,2.8,4.393,3.251a5.46,5.46,0,0,1,1.365,1.544,11.2,11.2,0,0,1,1.034,3.3c.807,3.947,1.309,5.509,3.05,8.22a28.984,28.984,0,0,0,3.656,4.832c.175.179.353.357.558.551l1.395,1.324c.621.6,1.183,1.161,1.808,1.823a15.786,15.786,0,0,1,3.679,6.3c.93,3.024,1.012,5.754.655,10.125-.175,2.165-.19,2.366-.19,3.043,0,3.909-.045,6.521-.234,9.589-.089,1.506-.208,2.9-.361,4.173h-.335a123.947,123.947,0,0,0,.558-13.763c0-.692.015-.893.193-3.072.35-4.326.268-7.019-.644-9.987a15.414,15.414,0,0,0-3.589-6.156c-.621-.655-1.183-1.216-1.8-1.8-.234-.223-1.164-1.1-1.395-1.328q-.287-.275-.565-.558a28.933,28.933,0,0,1-3.7-4.891c-1.774-2.76-2.288-4.356-3.1-8.347a10.945,10.945,0,0,0-1-3.2,5.223,5.223,0,0,0-1.276-1.436c-.513-.428-3.508-2.529-4.389-3.244a20.253,20.253,0,0,1-1.748-1.6,33.222,33.222,0,0,1-3.854-5.457q-1.075-1.741-2.269-3.4a8.915,8.915,0,0,0-3.113-3,41.249,41.249,0,0,0-4.129-1.5q-1.406-.433-2.827-.818l-.885-.249a18.3,18.3,0,0,1-4.828-1.916,13.809,13.809,0,0,0-3.82-1.358l-2.284-.569c-.93-.234-1.692-.446-2.425-.677a16.4,16.4,0,0,1-6.379-3.366c-1.506-1.384-3.348-2.306-6.941-3.682l-1.767-.677c-.7-.268-1.261-.487-1.8-.71-3.757-1.544-6.349-3.095-8.466-5.356a44,44,0,0,0-9.109-7.038c-.58-.357-2.909-1.711-5.263-3.1V96.895c1.488,3.032,3.169,5.524,4.724,6.658.934.677,2,1.5,3.363,2.574q1.162.922,2.317,1.852l.472.379q.9.727,1.811,1.451c2.808,2.232,4.8,3.738,6.55,4.906a14.242,14.242,0,0,1,3,2.652c2.172,2.258,4.359,3.206,10.843,4.073a29.192,29.192,0,0,1,11.438,4.118c.614.35,2.7,1.588,2.593,1.525,1,.588,1.745,1,2.47,1.361A12.719,12.719,0,0,0,55.427,130c6.372,0,15.414,4.281,19.2,8.492,4.482,4.984,11.687,10.3,16.831,11.59,2.753.688,4.408,2.622,5.222,5.464a17.415,17.415,0,0,1,.588,5.141,12.921,12.921,0,0,1-.089,1.35,13.732,13.732,0,0,0,.286,4.932,18.173,18.173,0,0,0,3.939,7.227c5.159,6.193,8.511,17.326,8.511,26.663,0,.889-.007,1.585-.022,3.255-.045,4.017-.037,5.877.082,8.165a39.827,39.827,0,0,0,1.86,10.9h.391a39.372,39.372,0,0,1-1.878-10.917c-.115-2.28-.126-4.129-.082-8.146.015-1.666.022-2.366.022-3.255,0-9.418-3.374-20.633-8.6-26.9a17.889,17.889,0,0,1-3.861-7.079,13.372,13.372,0,0,1-.275-4.81,13.368,13.368,0,0,0,.089-1.384,17.7,17.7,0,0,0-.6-5.245c-.848-2.957-2.593-5-5.49-5.725-5.059-1.265-12.208-6.543-16.645-11.471-3.857-4.289-13-8.618-19.48-8.618a12.324,12.324,0,0,1-5.676-1.514c-.718-.357-1.451-.763-2.448-1.347.112.067-1.983-1.175-2.6-1.529a29.67,29.67,0,0,0-11.572-4.166c-6.409-.855-8.518-1.767-10.627-3.958A14.576,14.576,0,0,0,19.45,114.4c-1.741-1.157-3.723-2.656-6.528-4.888q-.906-.721-1.808-1.447l-.476-.379q-1.158-.927-2.317-1.853c-1.365-1.079-2.436-1.9-3.374-2.585C3.322,102.065,1.54,99.323,0,96.035V120.92ZM0,77.686c.231,0,.472.022.725.048a25.479,25.479,0,0,1,8.12,2.771,12.132,12.132,0,0,0,5.271,1.008,31.277,31.277,0,0,0,5.479-.495c.632-.112,1.213-.227,1.737-.346a11.738,11.738,0,0,1,1.32-.212q3.093-.258,6.2-.327c3.876-.06,6.4.275,6.684,1.015.141.361-.223.949-1.127,1.811-.376.361-.826.755-1.5,1.32q-.89.749-1.782,1.5a4.644,4.644,0,0,1-2.046.93c-.26.06-.32.074-.982.2-1.313.26-1.871.465-2.288.978-.524.655-.521,1.689.056,3.3.908,2.541,2.128,3.738,3.79,3.842,1.35.086,2.827-.48,5.4-1.882,1.685-.919,2.537-2.715,3.095-5.676.063-.324.119-.662.186-1.064l.16-1.027c.391-2.448.707-3.422,1.387-3.761a7.193,7.193,0,0,1,.878-.372,8.2,8.2,0,0,1,3.013-.342c.852.026,5.468.372,5.122.346,7.644.51,10.713,1.878,13.8,5.576q.817.991,1.581,2.023L65.131,90l.934,1.235a21.938,21.938,0,0,0,3.865,4.136c.242.193.495.387.792.6l1.529,1.094q.982.713,1.919,1.484a71.181,71.181,0,0,1,6.044,5.721c3.069,3.191,4.382,5.036,4.352,5.933-.026.614-.61.785-2.526.885-.6.033-.8.045-1.108.074a6.2,6.2,0,0,0-2.533.625c-2.782,1.544-4.326,2.7-5.189,4.307-1.227,2.288-.3,4.791,3.307,7.536,3.08,2.343,4.129,3.857,4.207,5.565a9.6,9.6,0,0,1-.1,1.648,10.829,10.829,0,0,0,1.042,6.48,16.454,16.454,0,0,0,1.547,2.8,7.306,7.306,0,0,0,3.943,2.86c.16.06,1.242.458,1.588.591.67.253,1.257.506,1.864.8a26.691,26.691,0,0,1,4.873,3.065,16.259,16.259,0,0,1,5.944,9.321,46.47,46.47,0,0,1,1.041,5.658c.469,3.2.807,4.7,1.518,6.156.781,1.592,4.438,9.891,4.824,10.742q1.136,2.517,2.369,4.988a36.428,36.428,0,0,0,3.991,6.625c2,2.4,3.34,5.345,5.122,10.571q.355,1.04.7,2.083c.67,1.99,1.1,3.2,1.585,4.408,2.28,5.7,9.459,9.786,17.282,9.786A22.518,22.518,0,0,0,151.4,214.6c2.083-1.164,1.692-.9,8.28-5.408,5.33-3.645,6.584-3.991,7.614-2.567.138.186.673,1.019.681,1.03a19.428,19.428,0,0,0,1.838,2.195c.272.294,2.053,2.183,2.593,2.771.885.967,1.6,1.789,2.224,2.578a16.963,16.963,0,0,1,1.89,2.849,12.139,12.139,0,0,1,.989,3.943q.085.591.171,1.183h.372l-.175-1.235a12.417,12.417,0,0,0-1.023-4.054,17.311,17.311,0,0,0-1.934-2.916c-.632-.8-1.35-1.629-2.243-2.6-.539-.591-2.321-2.485-2.589-2.775a19.183,19.183,0,0,1-1.8-2.15s-.547-.841-.692-1.041c-1.209-1.674-2.634-1.28-8.124,2.481-6.573,4.493-6.182,4.233-8.254,5.386a22.145,22.145,0,0,1-11.356,3.136c-7.681,0-14.719-4.006-16.939-9.556q-.851-2.172-1.577-4.389-.35-1.041-.7-2.083c-1.8-5.267-3.151-8.235-5.193-10.687a36.339,36.339,0,0,1-3.943-6.55c-.733-1.462-1.5-3.091-2.362-4.977-.383-.848-4.047-9.154-4.828-10.754a19.685,19.685,0,0,1-1.488-6.044,46.029,46.029,0,0,0-1.045-5.7,16.641,16.641,0,0,0-6.074-9.522,27.22,27.22,0,0,0-4.943-3.106c-.617-.3-1.216-.551-1.89-.811-.35-.134-1.436-.532-1.592-.591a6.979,6.979,0,0,1-3.772-2.727,16.207,16.207,0,0,1-1.51-2.741A10.466,10.466,0,0,1,81,130.885a10.09,10.09,0,0,0,.1-1.7c-.082-1.838-1.194-3.437-4.352-5.84-3.47-2.645-4.337-4.962-3.206-7.067.818-1.521,2.325-2.648,5.04-4.155a5.877,5.877,0,0,1,2.388-.584c.3-.026.5-.037,1.1-.071,2.146-.112,2.838-.316,2.872-1.242.037-1.045-1.3-2.927-4.452-6.208a71.251,71.251,0,0,0-6.074-5.747c-.666-.547-1.272-1.012-1.934-1.5l-1.533-1.094c-.294-.216-.543-.4-.781-.591a21.816,21.816,0,0,1-3.8-4.069q-.468-.615-.93-1.235l-.859-1.149c-.67-.889-1.131-1.488-1.6-2.038C59.827,82.808,56.662,81.4,49.114,80.9c.164.007-4.464-.335-5.327-.365a8.535,8.535,0,0,0-3.147.365,7.5,7.5,0,0,0-.919.387c-.844.424-1.179,1.44-1.588,4.036l-.164,1.027c-.063.4-.123.733-.186,1.053-.536,2.86-1.347,4.571-2.9,5.42-2.515,1.369-3.943,1.916-5.2,1.838-1.488-.093-2.6-1.179-3.459-3.6-.539-1.5-.543-2.414-.119-2.946.335-.417.848-.6,2.072-.844q.5-.09.993-.2a5.016,5.016,0,0,0,2.206-1.008q.88-.757,1.778-1.492.78-.645,1.518-1.339c1.015-.967,1.436-1.648,1.22-2.213-.379-.982-2.909-1.317-7.041-1.254q-3.116.051-6.223.327c-1.027.145-1.19.182-1.369.223-.521.112-1.1.231-1.718.338a30.838,30.838,0,0,1-5.416.491,11.825,11.825,0,0,1-5.107-.967A25.928,25.928,0,0,0,.766,77.363c-.26-.026-.521-.041-.763-.048v.372ZM0,40.14V40.7C3.21,46.668,6.428,51.69,8.8,54.059a8.033,8.033,0,0,0,5.036,2.068,42.252,42.252,0,0,0,7.134-.074,26.217,26.217,0,0,1,7.633.29,31.263,31.263,0,0,0,5.579.785l.837.052a45.576,45.576,0,0,1,12.171,2.135q2.511.742,5.319,1.294a91.6,91.6,0,0,0,12.126,1.477c2.812.167,4.914.212,7.529.212a13.606,13.606,0,0,1,6.7,1.927,17.311,17.311,0,0,1,7.265,9.113,25.5,25.5,0,0,0,1.7,3.645A10.068,10.068,0,0,0,92.8,81.514l1.5.729a23.985,23.985,0,0,1,5.639,3.813c3.05,2.727,5.1,6.186,8.384,13.242l.774,1.67c2.715,5.84,4.278,8.667,6.454,11.111,2.864,3.221,7.532,5.364,14.994,7.469,1.625.458,7.082,1.89,7.157,1.908a53.2,53.2,0,0,1,5.814,1.83c3.924,1.57,6.959,3.913,13.532,9.865l.632.573a87.866,87.866,0,0,0,7,5.907c1.469,1.079,2.976,2.109,4.824,3.314.766.5,3.831,2.455,4.586,2.953,4.285,2.79,6.893,4.85,9.158,7.469a23.064,23.064,0,0,1,2.4,3.292c1.536,2.57,2.332,4.891,3.422,9.34l.573,2.329c.223.911.428,1.689.64,2.448a24.374,24.374,0,0,0,5.5,10.01l1.525,1.845q.8.968,1.559,1.971a8.889,8.889,0,0,1,1.28,2.336,14.357,14.357,0,0,1,.7,4.441,21.822,21.822,0,0,0,1.722,8.432c.584,1.384,2.105,5.215,2.384,5.877a27.322,27.322,0,0,0,1.328,2.753,32.063,32.063,0,0,0,4.88,6.3,16.122,16.122,0,0,1,3.947,5.951q.3.885.513,1.793l.171.684h.383l-.193-.774c-.193-.777-.342-1.3-.521-1.823a16.5,16.5,0,0,0-4.032-6.085,31.836,31.836,0,0,1-4.824-6.238,26.97,26.97,0,0,1-1.309-2.712c-.279-.655-1.8-4.486-2.381-5.877a21.364,21.364,0,0,1-1.7-8.306,14.52,14.52,0,0,0-.718-4.549,9.262,9.262,0,0,0-1.332-2.433c-.472-.632-.967-1.254-1.57-1.986l-1.529-1.841a24.058,24.058,0,0,1-5.427-9.872c-.208-.759-.409-1.533-.636-2.44l-.569-2.329c-1.1-4.478-1.908-6.829-3.467-9.444a23.666,23.666,0,0,0-2.433-3.344c-2.3-2.648-4.925-4.724-9.236-7.536-.763-.495-3.824-2.455-4.586-2.953-1.845-1.2-3.348-2.224-4.806-3.3a86.377,86.377,0,0,1-6.971-5.885l-.632-.573c-6.606-5.985-9.664-8.343-13.64-9.931a52.9,52.9,0,0,0-5.858-1.845c-.078-.022-5.531-1.451-7.149-1.908-7.4-2.087-12.022-4.207-14.823-7.357-2.143-2.41-3.694-5.215-6.39-11.025l-.777-1.674c-3.3-7.093-5.371-10.586-8.47-13.354a24.356,24.356,0,0,0-5.721-3.868l-1.5-.733A9.7,9.7,0,0,1,88.137,76.8a25.144,25.144,0,0,1-1.666-3.6,17.686,17.686,0,0,0-7.428-9.3,13.975,13.975,0,0,0-6.881-1.979c-2.607,0-4.705-.045-7.5-.212a91.248,91.248,0,0,1-12.078-1.473c-1.86-.365-3.627-.792-5.289-1.283a46.066,46.066,0,0,0-12.253-2.15l-.833-.052a30.647,30.647,0,0,1-5.524-.777c-1.975-.465-4.014-.5-8.406-.26a37.014,37.014,0,0,1-6.4.037A7.692,7.692,0,0,1,9.057,53.8C6.662,51.4,3.366,46.222,0,40.14ZM0,207.6a51.8,51.8,0,0,0,1.239-7.532l.089-.759.086-.755c.677-5.84,1.142-8.176,2.064-9.1a3.376,3.376,0,0,0,.937-3.214c-.037-.223-.067-.409-.145-.8a4.211,4.211,0,0,1-.03-2.544c.339-.885,1.231-1.64,2.9-2.329,1.89-.777,2.425-1.8,1.819-3.139a8.129,8.129,0,0,0-1.309-1.864c-.387-.446-2.038-2.217-1.89-2.057-2.288-2.492-3.34-4.218-3.34-6.13A5.654,5.654,0,0,0,0,162.584v.469a5.271,5.271,0,0,1,2.046,4.326c0,2.035,1.09,3.828,3.437,6.383-.141-.156,1.5,1.611,1.886,2.046a7.893,7.893,0,0,1,1.25,1.774c.51,1.131.086,1.942-1.622,2.641-1.752.725-2.723,1.547-3.1,2.541a4.494,4.494,0,0,0,.011,2.753c.074.383.112.562.141.777a3.028,3.028,0,0,1-.829,2.9c-1.019,1.019-1.48,3.333-2.172,9.321l-.089.755-.086.759c-.305,2.607-.569,4.486-.87,5.963V207.6Zm0-23.121c.521-1.164,1.648-3.682,1.841-4.155a2.978,2.978,0,0,0,.338-1.927c-.074-.312-.763-1.741-.863-1.983A26.332,26.332,0,0,1,0,172.251v1.484a23.372,23.372,0,0,0,.975,2.827c.115.279.777,1.659.844,1.927a2.671,2.671,0,0,1-.324,1.7c-.153.379-.93,2.12-1.5,3.381Zm0-31.651a7.587,7.587,0,0,0,2.381,1.536c.093.037,5.2,2.035,7.588,3.136,3.478,1.607,6.212,2.195,8.566,1.953a11.883,11.883,0,0,0,5.494-2.2l1.19-.77q.986-.649,2.023-1.216c1.506-.811,1.209-2.157-.547-3.894a44.791,44.791,0,0,0-6.967-5.133l-1.659-1.049c-6.677-4.214-6.777-4.278-8.284-5.483C5.606,136.36,2.466,134.493,0,134.091v.379C2.373,134.88,5.442,136.7,9.56,140c1.525,1.22,1.614,1.28,8.317,5.505q.83.523,1.655,1.053a44.817,44.817,0,0,1,6.907,5.081c1.6,1.592,1.841,2.652.632,3.3-.632.339-1.224.7-2.046,1.227l-1.19.774a11.574,11.574,0,0,1-5.334,2.143c-2.28.238-4.955-.335-8.377-1.916-2.4-1.108-7.506-3.106-7.588-3.139A6.8,6.8,0,0,1,0,152.284v.547Zm0-15.388v.372c2.44.1,4.5,1.164,7.331,3.377l1.722,1.369a19.289,19.289,0,0,0,1.637,1.168c.305.193,2.05,1.239,2.314,1.4,1.231.744,2.288,1.413,3.3,2.083q1.566,1.033,3.035,2.2c1.715,1.384,2.753,2.567,2.965,3.478.234.993-.55,1.685-2.622,2.031a18.6,18.6,0,0,1-11.326-1.73A23.046,23.046,0,0,1,2,148.654,15.549,15.549,0,0,1,0,145.894v.714a14.488,14.488,0,0,0,1.726,2.3A23.415,23.415,0,0,0,8.2,153.526a18.966,18.966,0,0,0,11.55,1.759c2.254-.372,3.218-1.224,2.92-2.481-.238-1.019-1.313-2.25-3.091-3.682-.874-.707-1.9-1.443-3.065-2.221-1.015-.677-2.076-1.343-3.31-2.09-.268-.164-2.009-1.205-2.314-1.395-.469-.3-.967-.655-1.6-1.149-.3-.231-1.451-1.153-1.722-1.365-2.89-2.269-5.018-3.363-7.562-3.459ZM0,79.937v.372a6.488,6.488,0,0,1,2.909.577c3.723,1.395,5.133,1.886,7.123,2.514.662.208.978.309,1.44.461a12.143,12.143,0,0,0,2.507.431l.982.112c2.9.35,4.2.919,4.2,2.258,0,1.655-1.075,4.9-2.961,9.6a21.332,21.332,0,0,0-.867,2.827q-.161.642-.312,1.287c-.692,2.834-1.179,3.984-2.068,4.341a3.4,3.4,0,0,1-2.779-.268,14.4,14.4,0,0,1-4.166-3.523c-.565-.632-1.1-1.3-1.707-2.072L3.125,97.33C2.161,96.128.867,92.788,0,89.8v1.283a24.9,24.9,0,0,0,2.831,6.476c.164.2.993,1.287,1.172,1.521.606.781,1.153,1.451,1.719,2.09a14.844,14.844,0,0,0,4.289,3.608,3.728,3.728,0,0,0,3.08.275c1.056-.42,1.562-1.614,2.288-4.594q.157-.643.312-1.287a20.878,20.878,0,0,1,.848-2.775c1.912-4.761,2.991-8.016,2.991-9.742,0-1.625-1.428-2.254-4.523-2.63q-.492-.06-.986-.112a12.226,12.226,0,0,1-2.429-.409c-.469-.156-.781-.26-1.443-.469-1.986-.625-3.389-1.116-7.1-2.507A6.973,6.973,0,0,0,0,79.937Zm223.18,28.671A46.1,46.1,0,0,1,214.6,95.444c-1.227-3.028-2.265-6-4.021-11.364l-.591-1.8A117.887,117.887,0,0,0,204.5,67.565c-2.258-4.731-4.668-7.878-7.54-9.5a9.247,9.247,0,0,1-4.545-4.891,17.334,17.334,0,0,1-.692-2.448,10.267,10.267,0,0,0-1.462-3.854,9.587,9.587,0,0,0-4.5-3.333c-5.87-2.448-6.223-2.619-6.714-3.351a2.675,2.675,0,0,1-.275-1.678c.011-.272.086-1.421.089-1.488q.062-1.031.063-2.064c0-3.735-.067-4.229-.882-4.891a4.7,4.7,0,0,0-.77-.484c-.1-.052-.811-.417-1.056-.551a25.442,25.442,0,0,1-3.392-2.183,19.964,19.964,0,0,1-2.979-2.95,17.229,17.229,0,0,0-3.333-3.02,4.868,4.868,0,0,0-4.054-.785,36.543,36.543,0,0,1-6.986.915c-2.567.149-4.8.186-8.165.186a31.6,31.6,0,0,0-5.728.584,23.921,23.921,0,0,1-4.6.573,7.046,7.046,0,0,1-3.973-1.1,11.491,11.491,0,0,0-4.166-1.934c-1.347-.238-1.774-.171-6.156.766-6.42,1.376-11.475.506-15.273-3.608-1.9-2.057-2.038-3.31-1.294-5.505a6.782,6.782,0,0,0,.435-1.6A2.976,2.976,0,0,0,105.534,6.8c-.986-.986-1.756-3.411-2.314-6.8h-.755c.58,3.612,1.4,6.193,2.541,7.328a2.24,2.24,0,0,1,.8,1.964,6.319,6.319,0,0,1-.4,1.451c-.826,2.429-.655,3.965,1.451,6.249,4.006,4.337,9.325,5.256,15.976,3.831,4.248-.911,4.668-.975,5.87-.766a10.985,10.985,0,0,1,3.894,1.83,7.785,7.785,0,0,0,4.374,1.216,24.524,24.524,0,0,0,4.735-.584,30.912,30.912,0,0,1,5.6-.573c3.385,0,5.62-.037,8.209-.186a37.145,37.145,0,0,0,7.142-.945c2.09-.569,3.783.513,6.64,3.593a20.255,20.255,0,0,0,3.08,3.043,26.179,26.179,0,0,0,3.489,2.243c.253.138.96.5,1.056.554a3.972,3.972,0,0,1,.651.4c.547.446.606.893.606,4.315,0,.688-.022,1.317-.063,2.023,0,.063-.074,1.22-.089,1.5a3.3,3.3,0,0,0,.4,2.124c.621.93.844,1.042,7.049,3.623a8.852,8.852,0,0,1,4.166,3.065,9.588,9.588,0,0,1,1.354,3.608,18,18,0,0,0,.722,2.541,9.988,9.988,0,0,0,4.873,5.274c2.715,1.533,5.04,4.568,7.238,9.173a117.894,117.894,0,0,1,5.457,14.626l.588,1.8c1.767,5.382,2.8,8.362,4.04,11.416a47.6,47.6,0,0,0,9.273,13.986v-1.1Zm0,29.013v-.186l-.372,0c-2.351,0-2.779,1.934-1.711,4.969a22.453,22.453,0,0,0,2.083,4.2v-.714a21.484,21.484,0,0,1-1.73-3.616c-1-2.827-.636-4.471,1.358-4.471.126,0,.249,0,.372.007v-17.33q-2.586-1.491-5.1-3.1C213,113.86,207,103.393,207,97.445c0-6.733-8.023-27.02-11.988-29.542-4.728-3.009-11.992-10.4-13.316-14.042-.718-1.971-2.046-2.7-5.364-3.485-2.288-.536-3.214-.9-3.969-1.782a10.855,10.855,0,0,1-1.611-3.831c-.086-.29-.707-2.485-.9-3.147-1.347-4.493-2.715-6.878-5.01-7.584a35.5,35.5,0,0,1-3.623-1.376,21.71,21.71,0,0,0-6.368-1.83,11.386,11.386,0,0,0-7.272,1.737,13.626,13.626,0,0,1-7.5,1.7,36.215,36.215,0,0,1-7.376-1.042c-.677-.149-2.745-.647-3.072-.722a10.607,10.607,0,0,0-2.038-.331c-1.849,0-3.322-.019-5.282-.1-2.939-.119-5.788-.342-8.462-.7a42.2,42.2,0,0,1-8.139-1.793c-7.03-2.462-12.141-6.807-12.524-10.263a20.523,20.523,0,0,0-1.038-4.133A17.47,17.47,0,0,1,91.132,8.4a8.726,8.726,0,0,1,.551-2.388A26.25,26.25,0,0,0,92.958-.01h-.335a24.885,24.885,0,0,1-1.291,5.885,9.274,9.274,0,0,0-.573,2.488,17.777,17.777,0,0,0,1.03,6.919,19.906,19.906,0,0,1,1.019,4.073c.405,3.627,5.617,8.064,12.77,10.568a42.516,42.516,0,0,0,8.217,1.811c2.686.357,5.55.584,8.492.7,1.971.078,3.448.1,5.3.1a10,10,0,0,1,1.957.324c.324.074,2.392.569,3.072.722a36.82,36.82,0,0,0,7.45,1.049,13.967,13.967,0,0,0,7.7-1.748,11.03,11.03,0,0,1,7.041-1.689A21.338,21.338,0,0,1,161.076,33a36.516,36.516,0,0,0,3.653,1.387c2.131.655,3.452,2.961,4.765,7.335.2.658.818,2.849.9,3.147a11.152,11.152,0,0,0,1.685,3.969c.826.96,1.8,1.347,4.467,1.971,2.9.681,4.14,1.361,4.8,3.177,1.358,3.735,8.674,11.181,13.465,14.228,3.842,2.451,11.817,22.612,11.817,29.233,0,6.078,6.063,16.657,11.241,20.239.8.551,3.065,1.9,5.312,3.229v16.712Zm0-64.61V72.6a27.36,27.36,0,0,1-8.124-7.06c-1.413-1.7-5.286-6.986-5.873-7.644a17.355,17.355,0,0,0-2.76-2.4c-.4-.3-1.83-1.328-2.042-1.484-3.482-2.548-5.208-4.449-5.944-7.2-.3-1.108-.573-2.522-.915-4.575-.086-.536-.744-4.635-.952-5.873-1.068-6.238-2.131-9.965-3.746-11.94-4.036-4.925-7.4-10.244-7.4-12.152,0-.945-.126-1.246-2.25-5.844-.253-.554-.465-1.019-.658-1.462a16.524,16.524,0,0,1-1.54-4.969h-.372a16.513,16.513,0,0,0,1.573,5.118c.193.446.405.911.662,1.469,2.061,4.467,2.213,4.832,2.213,5.687,0,2.035,3.381,7.38,7.48,12.39,1.562,1.9,2.615,5.6,3.668,11.769.212,1.239.867,5.33.956,5.87.342,2.068.621,3.489.922,4.612.763,2.857,2.537,4.81,6.082,7.406l2.042,1.48a17.571,17.571,0,0,1,2.7,2.347c.569.643,4.441,5.925,5.862,7.636a27.366,27.366,0,0,0,8.41,7.238Zm0,134.588v-1.611a19.418,19.418,0,0,1-.6,2.288c-.744,2.243-1.711,3.072-3.046,2.451C212.486,207.435,207,201.748,207,196.02c0-6.026-2.369-11.9-6.361-17.222a13.689,13.689,0,0,0-2.057-2.232c-.272-.231-.539-.439-.856-.67l-.744-.532c-1.369-1-1.979-1.964-2.634-4.683-.279-1.142-.513-1.867-1.562-4.932l-.234-.7c-1.205-3.563-1.7-5.568-1.551-6.937.179-1.648,1.413-1.945,4.2-.61a30.176,30.176,0,0,0,3.4,1.376,44.123,44.123,0,0,0,15.868,2.016l.725-.019.539-.007a14.8,14.8,0,0,1,5.6,1.1,8.112,8.112,0,0,1,1.841,1.082v-.469a8.761,8.761,0,0,0-1.692-.956A15.165,15.165,0,0,0,215.2,160.5l-.725.019a43.793,43.793,0,0,1-15.742-2,29.8,29.8,0,0,1-3.363-1.358c-2.991-1.428-4.523-1.06-4.731.9-.156,1.447.342,3.474,1.566,7.1l.238.7c1.042,3.05,1.276,3.775,1.547,4.9.677,2.8,1.335,3.846,2.779,4.9l.744.532c.312.223.573.428.837.651a13.184,13.184,0,0,1,2,2.172c3.947,5.263,6.286,11.062,6.286,17,0,5.907,5.579,11.7,12.755,15.046,1.6.748,2.749-.245,3.556-2.671.086-.253.164-.517.242-.792Zm0-23.121v-.911l-.543,1.216a22.359,22.359,0,0,0-1.585,6.238,61.272,61.272,0,0,0-.387,6.881c-.074,3.467-.186,4.743-.606,5.6-.476.967-1.365.874-3.084-.558-6.376-5.319-8.116-8.518-8.116-14.365A13.972,13.972,0,0,0,207.486,182c-.844-1.737-1.358-2.462-4.984-7.3a25.963,25.963,0,0,0-2.827-3.27,16.644,16.644,0,0,0-1.317-1.138c-.141-.112-.238-.193-.331-.275a3.9,3.9,0,0,1-.978-1.235,13.309,13.309,0,0,1-.841-2.209l-.138-.446-.134-.428c-.108-.339-.179-.577-.246-.8a12.515,12.515,0,0,1-.338-1.361c-.141-.818-.045-1.3.316-1.544.874-.6,3.452-.089,8.853,1.838a27.514,27.514,0,0,0,10.359,1.585c2.868.022,3.88.149,4.929.789,1.294.789,2.172,2.381,2.819,5.3.186.818.368,1.559.554,2.224v-1.48l-.19-.826c-.67-3.013-1.592-4.687-2.991-5.542-1.131-.688-2.18-.818-5.122-.841a27.133,27.133,0,0,1-10.233-1.562c-5.553-1.979-8.165-2.5-9.188-1.8-.513.35-.636.967-.476,1.916a12.527,12.527,0,0,0,.35,1.406l.245.807.134.428.138.446a13.63,13.63,0,0,0,.867,2.269,4.245,4.245,0,0,0,1.064,1.343l.342.286.379.309c.335.275.614.521.919.811a25.6,25.6,0,0,1,2.782,3.221c3.608,4.81,4.118,5.531,4.951,7.238a13.657,13.657,0,0,1,1.335,6.413c0,5.966,1.793,9.266,8.25,14.648,1.875,1.562,3.043,1.692,3.656.439.454-.93.565-2.209.644-5.754a61.533,61.533,0,0,1,.383-6.844,21.839,21.839,0,0,1,1.559-6.134l.2-.45ZM82.108-.006h-.387L81.163,1.95a43.213,43.213,0,0,0-1.957,10.341,22.464,22.464,0,0,0,2.466,11.594A28.827,28.827,0,0,0,95.145,36.569a33.358,33.358,0,0,0,13.473,3.411c2.544,0,6.413.513,13.863,1.718l.844.138c9.113,1.484,11.773,1.86,13.934,1.86,1.3,0,1.518-.03,7.268-1.042,1.324-.238,2.351-.409,3.348-.558,7.525-1.1,11.531-.446,11.888,2.924.037.316.067.64.108,1.045l.1,1.015c.409,4.054.751,5.851,1.6,7.424,1.079,1.986,2.89,2.957,5.814,2.957,3.794,0,4.806.223,5.765,1.179a43.849,43.849,0,0,0,3.035,3.236c1.023.93,5.327,4.668,5.866,5.144q1.23,1.085,2.433,2.2a34.062,34.062,0,0,1,5.431,6.007c2.2,3.459,3.9,6.71,4.348,8.957.617,3.087-1.365,3.549-7.075.45q-8.119-4.4-16.567-8.146c-1.3-.58-5.222-2.306-5.832-2.585-1.878-.837-3.087-1.413-4.01-1.916l-.725-.4-.811-.439c-.655-.35-1.257-.655-1.86-.949-6.733-3.244-12.825-3.891-18.721-.446-8.514,4.962-14.239,13.77-14.239,20.994,0,7.112.272,9.348,1.927,12.349a16.858,16.858,0,0,0,1.838,2.648c2.407,2.89,4.393,6.026,4.746,7.912.446,2.358-1.745,2.615-7.5-.019a21.849,21.849,0,0,1-10.6-9.79,29.946,29.946,0,0,1-2.269-5.628c-.335-1.108-1.179-4.333-1.268-4.642a10.8,10.8,0,0,0-.651-1.8c-2.779-5.553-7.845-11.345-13.484-13.852-2.831-1.257-4.836-3.589-7.216-7.733-.312-.551-1.585-2.842-1.912-3.411a13.706,13.706,0,0,0-3.485-4.456c-3.775-2.753-10.675-4.129-18.706-4.129a50.5,50.5,0,0,1-10.233-1.332q-2.794-.6-5.565-1.309c.484.123-5.78-1.48-7.224-1.819-5.263-1.239-15.277-1.864-23.847-1.864-6.457,0-10.348-3.433-14.332-14.384-2.462-6.774-2.462-9.809-1-12.777l.439-.882a4.97,4.97,0,0,0,.573-2.273c0-1.5,0-1.492-.93-9.135-.171-1.387-.3-2.507-.417-3.586A75.174,75.174,0,0,1,2.794,1.11c0-.35.007-.722.015-1.116H2.436C2.425.388,2.422.76,2.422,1.11a74.714,74.714,0,0,0,.517,7.774c.112,1.082.246,2.206.413,3.593.93,7.607.93,7.614.93,9.091a4.615,4.615,0,0,1-.539,2.113c-.089.19-.431.874-.435.878-1.51,3.065-1.51,6.2.986,13.067C8.325,48.71,12.338,52.255,18.974,52.255c8.54,0,18.535.625,23.765,1.856,1.436.335,7.7,1.934,7.216,1.815q2.776.707,5.576,1.313a50.924,50.924,0,0,0,10.311,1.339c7.96,0,14.789,1.365,18.487,4.054a13.588,13.588,0,0,1,3.385,4.345c.324.565,1.6,2.857,1.912,3.411,2.414,4.2,4.464,6.588,7.387,7.886,5.542,2.466,10.556,8.194,13.3,13.677a10.479,10.479,0,0,1,.629,1.737c.086.3.93,3.53,1.265,4.65a30.306,30.306,0,0,0,2.3,5.691,22.214,22.214,0,0,0,10.772,9.954c5.989,2.738,8.555,2.436,8.027-.387-.372-1.968-2.381-5.144-4.832-8.083a16.489,16.489,0,0,1-1.793-2.589c-1.618-2.931-1.882-5.122-1.882-12.171,0-7.082,5.65-15.771,14.031-20.663,5.792-3.377,11.762-2.745,18.394.45q1.349.65,2.656,1.38l.725.4q1.981,1.041,4.036,1.931c.614.275,4.531,2,5.836,2.585q8.427,3.736,16.538,8.131c5.933,3.221,8.321,2.663,7.618-.852-.461-2.306-2.169-5.587-4.4-9.083a34.347,34.347,0,0,0-5.494-6.078c-.736-.688-1.533-1.41-2.44-2.209-.543-.48-4.843-4.214-5.858-5.141-1.149-1.041-3.2-3.4-3.028-3.225-1.049-1.049-2.139-1.287-6.026-1.287-2.79,0-4.478-.9-5.487-2.76-.818-1.514-1.157-3.288-1.562-7.287l-.1-1.015-.112-1.045c-.208-2.016-1.663-3.162-4.177-3.571a27.951,27.951,0,0,0-8.131.32c-1,.149-2.035.32-3.363.554-5.7,1-5.937,1.042-7.2,1.042-2.131,0-4.8-.383-13.874-1.86l-.844-.134c-7.477-1.213-11.352-1.726-13.923-1.726a32.953,32.953,0,0,1-13.309-3.377A28.438,28.438,0,0,1,82,23.714a22.086,22.086,0,0,1-2.422-11.408A42.816,42.816,0,0,1,81.524,2.051Zm-5.088,0H76.64c-.29,1.451-.714,3.236-1.306,5.535a25.394,25.394,0,0,0,.279,14.421,22.69,22.69,0,0,0,4.222,7.692,51.466,51.466,0,0,0,7.186,6.982,33.935,33.935,0,0,0,13.372,6.84q4.162.943,8.4,1.514c1.179.164,2.366.316,3.831.491l3.493.417c4.289.524,6.491.949,8.049,1.659,3.452,1.566,10.545,2.247,18.3,2.247a10.56,10.56,0,0,0,1.6-.13,23.787,23.787,0,0,0,3.4-.852c2.73-.822,3.582-1.023,4.7-.952a3.462,3.462,0,0,1,3.151,2.563,18.975,18.975,0,0,1,1.242,5.572c.409,3.34,1.068,4.508,3.709,5.319a14.923,14.923,0,0,1,2.529.989c.234.123.432.238.655.379l.5.32c.707.424,1.436.554,3.441.554,1.19,0,3.284-.2,3.537-.145.454.1.279-.052,2.656,2.321a25.011,25.011,0,0,0,2.351,2c.565.439,2.663,2.02,2.953,2.243A37.844,37.844,0,0,1,183,71.46c1.815,1.852,2.548,3.4,2.068,4.724-.5,1.365-1.514,1.644-3.311,1.049a20.725,20.725,0,0,1-2.89-1.294c-.558-.286-2.894-1.536-3.485-1.845A43.446,43.446,0,0,0,170.8,71.98q-2.086-.824-4.106-1.8c-.759-.361-3.995-1.919-4.836-2.314-1.64-.781-3.013-1.406-4.333-1.968-6.376-2.715-10.906-3.682-14.012-2.474l-2.02.781c-.856.327-1.551.6-2.239.885q-2.483,1-4.862,2.232c-6.822,3.582-11.289,8.232-12.941,14.83-2.589,10.359-1.339,16.936,3.005,23.211,1.477,2.139,1.309,3.422-.022,3.337-1.54-.1-3.8-1.841-5.62-4.657-1.153-1.785-1.9-3.887-2.994-8.008l-.629-2.362c-.245-.919-.461-1.681-.681-2.418-1.834-6.16-4.092-10.147-8.02-12.93-2.66-1.882-8.827-5.765-9.478-6.23a14.494,14.494,0,0,1-5.334-6.7c-2.879-6.487-7.845-9.054-16.541-9.054a52.679,52.679,0,0,1-10.984-1.3q-1.154-.232-2.306-.476c-.893-.186-1.514-.312-2.105-.42a20.134,20.134,0,0,0-3.575-.409c-1.652,0-3.493-.372-11.676-2.228l-1.1-.245c-6.078-1.365-9.537-1.99-11.776-1.99-.573,0-.893,0-2.381.037-2.9.056-4.564.048-6.446-.074-6.1-.394-9.943-1.994-11.085-5.416a32.408,32.408,0,0,0-1.32-3.284c.056.115-.852-1.845-1.079-2.373-2-4.575-2.072-8.153.536-14.67A32.138,32.138,0,0,0,11.8,15.791c.6-4.456.513-8.607-.037-15.009l-.074-.789h-.372l.074.818c.55,6.379.632,10.5.041,14.931A31.766,31.766,0,0,1,9.5,23.357c-2.641,6.614-2.57,10.292-.532,14.96.231.532,1.138,2.5,1.082,2.381a32.057,32.057,0,0,1,1.309,3.247c1.2,3.616,5.17,5.263,11.412,5.669,1.9.123,3.563.13,6.48.074,1.48-.033,1.8-.037,2.369-.037,2.2,0,5.646.621,11.695,1.979l1.1.249c8.243,1.867,10.062,2.236,11.758,2.236a19.86,19.86,0,0,1,3.508.405c.588.108,1.209.231,2.1.413l2.306.48a53.091,53.091,0,0,0,11.059,1.306c8.563,0,13.391,2.5,16.192,8.8A14.9,14.9,0,0,0,96.8,72.4c.662.472,6.829,4.352,9.478,6.23,3.846,2.723,6.063,6.647,7.882,12.732.216.729.428,1.488.677,2.407l.629,2.362c1.108,4.159,1.86,6.286,3.039,8.113,1.878,2.905,4.229,4.717,5.911,4.828,1.748.115,1.971-1.573.35-3.917-4.285-6.19-5.513-12.658-2.946-22.913,1.618-6.48,6.011-11.055,12.747-14.589,1.488-.781,3.05-1.488,4.832-2.221.684-.279,1.376-.554,2.232-.885l2.02-.774c2.987-1.161,7.447-.216,13.733,2.466,1.309.558,2.682,1.187,4.319,1.96l4.836,2.314c1.752.826,3.035,1.395,4.133,1.815a43.1,43.1,0,0,1,4.542,2.094c.588.309,2.924,1.555,3.485,1.845a21.035,21.035,0,0,0,2.939,1.317c1.971.651,3.206.316,3.783-1.276.543-1.5-.245-3.162-2.157-5.111a38.029,38.029,0,0,0-4.147-3.526c-.294-.223-2.392-1.8-2.953-2.239a24.907,24.907,0,0,1-2.317-1.964c-2.507-2.507-2.269-2.291-2.831-2.421-.324-.074-2.488.134-3.623.134-1.942,0-2.615-.119-3.251-.5l-.487-.312c-.231-.149-.439-.268-.684-.4a15.277,15.277,0,0,0-2.589-1.012c-2.47-.759-3.058-1.8-3.452-5.01a19.366,19.366,0,0,0-1.265-5.669,3.827,3.827,0,0,0-3.474-2.793c-1.179-.074-2.046.13-4.824.967a23.635,23.635,0,0,1-3.355.841,10.3,10.3,0,0,1-1.54.126c-7.7,0-14.767-.677-18.152-2.217-1.607-.729-3.828-1.153-8.157-1.685l-3.5-.417c-1.458-.179-2.645-.327-3.82-.491-3.035-.424-5.728-.9-8.366-1.51a33.571,33.571,0,0,1-13.223-6.77A51.109,51.109,0,0,1,80.118,27.4a22.326,22.326,0,0,1-4.147-7.558,25.057,25.057,0,0,1-.279-14.22q.74-2.793,1.328-5.624Zm-42.311,0H34.24c.186.245.335.439.435.562a13.844,13.844,0,0,0,3.653,3.56,3.727,3.727,0,0,0,1.849.528,4.4,4.4,0,0,1,2.5.822l.986.636a8.474,8.474,0,0,0,5.074,1.518,13.33,13.33,0,0,0,5.981-1.506q.429-.194.855-.394l.811-.365A9.651,9.651,0,0,1,57.93,4.8a4.992,4.992,0,0,1,1.216-.16c.856,0,1.6-.253,4.092-1.254l.58-.231a9.855,9.855,0,0,1,3.913-.989c1.09.074,1.644.755,1.644,2.288,0,7.722,1.938,18.755,4.519,21.332A150.56,150.56,0,0,0,86.564,36.6c4.9,3.5,11.594,7.514,16.407,9.321a39.753,39.753,0,0,0,4.955,1.5c1.22.29,2.455.532,4.185.833.2.037,3.273.558,4.278.74,1.808.324,3.459.647,5.208,1.027,7.67,1.666,9.325,1.864,14.176,1.864.926,0,1.079-.026,5.226-.744.9-.156,1.6-.272,2.288-.372,3.017-.443,5.144-.506,6.561-.074,1.689.521,2.206,1.73,1.376,3.913a7.016,7.016,0,0,1-3.288,3.995,15.483,15.483,0,0,1-5.141,1.38,49.139,49.139,0,0,0-5.765,1.086,29.088,29.088,0,0,0-6.926,2.741,19.465,19.465,0,0,0-7.432,7.77c-1.015,1.759-3.519,7.19-3.921,7.882-1.265,2.176-2.329,2.466-4.051.744-1.841-1.838-3.85-3.113-7.86-5.23-.175-.093-.766-.409-.789-.417a38.916,38.916,0,0,1-5.9-3.549,11.994,11.994,0,0,1-4.006-4.876c-3.169-7.529-7.718-12.39-12.074-12.39l-2.046.011c-3.917.03-6.454.007-9.262-.115-5.081-.231-8.845-.777-10.932-1.737a86.292,86.292,0,0,0-8.994-3.355c-1.287-.424-2.34-.763-4.724-1.525-2.864-.911-4.121-1.317-5.643-1.823q-2.1-.7-4.214-1.384c-1.365-.446-2.217-.744-2.987-1.034a22.276,22.276,0,0,1-2.477-1.094,23.776,23.776,0,0,1-2.18-1.3,9.876,9.876,0,0,0-4.478-1.536l-.428-.074a8.475,8.475,0,0,1-4.746-2.094c-2.909-2.589-3.191-8.622-1.428-16.56.632-2.853.781-7.172.584-13.194Q20,3.459,19.807-.006h-.372l.056,1.138c.119,2.388.2,4.1.253,5.81.19,5.989.045,10.285-.58,13.1-1.793,8.064-1.5,14.209,1.547,16.917a8.769,8.769,0,0,0,4.925,2.183l.431.074a9.6,9.6,0,0,1,4.333,1.48,23.7,23.7,0,0,0,2.217,1.324,22.638,22.638,0,0,0,2.518,1.112c.777.294,1.633.588,3,1.038q2.1.692,4.21,1.38c1.525.51,2.783.915,5.647,1.83,2.388.759,3.437,1.1,4.724,1.518a86.539,86.539,0,0,1,8.953,3.34c2.143.989,5.94,1.54,11.073,1.774,2.812.123,5.356.145,9.281.115l2.042-.011c4.162,0,8.615,4.757,11.732,12.163a12.364,12.364,0,0,0,4.121,5.029,39.6,39.6,0,0,0,5.955,3.578l.789.417c3.98,2.1,5.966,3.363,7.774,5.17,1.912,1.912,3.255,1.544,4.631-.826.417-.714,2.92-6.137,3.921-7.886a19.138,19.138,0,0,1,7.291-7.625,28.716,28.716,0,0,1,6.844-2.708,47.407,47.407,0,0,1,5.728-1.079,15.7,15.7,0,0,0,5.256-1.417,7.382,7.382,0,0,0,3.459-4.192c.9-2.377.29-3.816-1.614-4.4-1.488-.454-3.653-.391-6.725.063-.684.1-1.391.216-2.3.372-4.1.707-4.27.736-5.163.736-4.821,0-6.454-.193-14.1-1.856-1.752-.379-3.407-.707-5.219-1.03-1.008-.179-4.084-.707-4.278-.736-1.726-.3-2.957-.543-4.166-.829a39.583,39.583,0,0,1-4.91-1.488c-4.772-1.789-11.453-5.8-16.322-9.277A150.773,150.773,0,0,1,74.155,25.529c-2.474-2.481-4.408-13.45-4.408-21.072,0-1.715-.692-2.567-1.99-2.66a10.028,10.028,0,0,0-4.077,1.015l-.58.231c-2.429.975-3.173,1.227-3.954,1.227a5.353,5.353,0,0,0-1.3.171,10.664,10.664,0,0,0-1.614.569q-.627.27-1.242.565l-.428.2a13.011,13.011,0,0,1-5.829,1.469,8.1,8.1,0,0,1-4.873-1.458c-.074-.048-.781-.513-.989-.64a4.754,4.754,0,0,0-2.693-.878,3.332,3.332,0,0,1-1.663-.484A13.469,13.469,0,0,1,34.965.325L34.7-.006Zm67.757,223.18h.755c-.182-1.1-.338-2.306-.476-3.593-.164-1.525-.283-3.069-.365-4.542a14.2,14.2,0,0,1,.13-2.712c.175-.722.346-1.54.506-2.433a40.535,40.535,0,0,0,.424-12.565,22.6,22.6,0,0,0-1.927-6.677,26.328,26.328,0,0,0-4.687-6.777,43.2,43.2,0,0,0-4.4-4.014,12.529,12.529,0,0,1-2.8-2.79,2.189,2.189,0,0,1-.353-1.138,29.4,29.4,0,0,1,.279-3.433c.134-1.376.212-2.343.253-3.333.186-4.5-.6-7.291-3.017-8.094-5.914-1.971-9.63-4.5-12.442-9.5-3.523-6.271-9.567-11.721-13.342-11.721-4.6,0-7.439-.729-10.94-3.273-2.514-1.83-3.534-2.455-4.638-2.775a11.027,11.027,0,0,0-3.392-.275,3.116,3.116,0,0,1-2.072-.975c-.4-.357-1.9-1.9-2.083-2.083a10.225,10.225,0,0,0-7.748-3.266c-.911,0-1.689.015-2.723.045-2.793.086-3.3.063-4.192-.26-1.127-.409-2.057-1.127-5.487-4.155a48.257,48.257,0,0,0-8.507-6.126c-.536-.335-.963-.606-1.373-.882a25.831,25.831,0,0,1-3.519-2.79C2.8,111.595,1.35,110.118,0,108.612v1.108q1.84,2,3.82,3.861a26.506,26.506,0,0,0,3.615,2.864c.417.283.848.558,1.395.893a47.921,47.921,0,0,1,8.406,6.056c3.519,3.106,4.467,3.839,5.725,4.3,1.019.372,1.559.394,4.467.305,1.027-.03,1.8-.045,2.7-.045a9.482,9.482,0,0,1,7.227,3.058c.164.16,1.681,1.726,2.113,2.105a3.79,3.79,0,0,0,2.563,1.161,10.661,10.661,0,0,1,3.184.245c.993.29,1.968.882,4.408,2.66,3.645,2.652,6.64,3.418,11.378,3.418,3.43,0,9.284,5.282,12.7,11.341,2.916,5.185,6.785,7.819,12.851,9.842,1.975.658,2.682,3.165,2.511,7.357-.037.967-.115,1.93-.253,3.288a30.151,30.151,0,0,0-.279,3.508,2.916,2.916,0,0,0,.461,1.521,12.907,12.907,0,0,0,2.953,2.976,43.029,43.029,0,0,1,4.341,3.954,25.591,25.591,0,0,1,4.557,6.588,21.872,21.872,0,0,1,1.86,6.457,39.726,39.726,0,0,1-.42,12.331c-.16.882-.327,1.685-.495,2.4a10.066,10.066,0,0,0-.223,1.51q.12,3,.435,6c.138,1.254.29,2.429.465,3.511Zm4.984,0h.391l-.045-.1a15.781,15.781,0,0,1-1.6-6.963c0-1.328.026-1.834.283-5.821a85.459,85.459,0,0,0,.2-10.527,43.741,43.741,0,0,0-2.161-11.962,36.288,36.288,0,0,0-1.692-4.129,28.43,28.43,0,0,0-3.876-6.175,21.941,21.941,0,0,0-1.618-1.7c-.16-.149-1.116-1.041-1.365-1.283-2.128-2.083-2.793-4.285-2.793-10.854,0-7.008-1.079-8.842-5.884-10.5-.405-.138-.714-.249-1.03-.365a19.078,19.078,0,0,1-2.269-1,19.784,19.784,0,0,1-5.371-4.248c-9.485-10.277-13.819-13.078-20.968-13.078a15.037,15.037,0,0,1-8.183-2.343c-.662-.383-5.141-3.281-6.755-4.192-1.053-.591-2.105-1.127-3.21-1.633-2.946-1.339-5.2-1.655-9.894-1.785a18.628,18.628,0,0,1-5.3-.588,7.131,7.131,0,0,1-4.066-3.136c-.818-1.268-2.548-2.634-5.453-4.486-.6-.383-1.216-.763-2.1-1.3a64.362,64.362,0,0,1-5.509-3.56,21.647,21.647,0,0,1-5.088-5.494q-1.086-1.6-2.09-3.255v.707c.733,1.179,1.265,2,1.785,2.76a21.925,21.925,0,0,0,5.17,5.579,64.571,64.571,0,0,0,5.539,3.575q1.053.642,2.094,1.3c2.864,1.823,4.56,3.169,5.341,4.374a7.488,7.488,0,0,0,4.27,3.292,19.054,19.054,0,0,0,5.4.606c4.65.126,6.859.439,9.745,1.748q1.626.74,3.184,1.618c1.6.9,6.078,3.8,6.751,4.192a15.4,15.4,0,0,0,8.369,2.392c7.019,0,11.271,2.753,20.692,12.959a20.267,20.267,0,0,0,5.468,4.322,19.565,19.565,0,0,0,2.317,1.023c.32.119.632.231,2,.7,1.89.655,2.767,1.209,3.452,2.369.829,1.406,1.224,3.7,1.224,7.458,0,6.658.7,8.953,2.9,11.118.257.249,1.216,1.138,1.373,1.287a21.591,21.591,0,0,1,1.592,1.67,28.052,28.052,0,0,1,3.824,6.093,35.406,35.406,0,0,1,1.674,4.088,43.43,43.43,0,0,1,2.143,11.866,85.453,85.453,0,0,1-.2,10.478c-.257,4-.283,4.508-.283,5.847a16.587,16.587,0,0,0,1.618,7.067Zm-9.329,0h.372c.015-1.759-.022-3.493-.1-5.587-.1-2.384.149-4.385.941-9.065l.115-.692c.789-4.668,1.027-7.2.733-9.846a12.106,12.106,0,0,0-4.464-8.432c-8.2-6.77-11.088-11.226-11.088-16.593a14.317,14.317,0,0,1,.365-3.039,9.177,9.177,0,0,0,.361-2.816,3.554,3.554,0,0,0-1.324-2.5,16.283,16.283,0,0,0-5.1-2.607c-3.616-1.3-5.773-3.415-9.039-8.023l-.662-.93a29.581,29.581,0,0,0-3.88-4.754,11.935,11.935,0,0,0-5.408-3.039,63.037,63.037,0,0,1-9.426-2.842,18.417,18.417,0,0,1-1.964-1c-.409-.242-.651-.387-1.577-.967-1-.625-1.942-.774-4.233-.848a13.6,13.6,0,0,1-4.08-.524,7.986,7.986,0,0,1-3.549-2.314,10.387,10.387,0,0,0-6.617-3.311c-.4-.067-.7-.112-1.436-.216a13.214,13.214,0,0,1-5.014-1.346c-1.674-.911-2.526-1.652-8.726-7.32l-1.168-1.06c-3.589-3.24-6-5.144-7.967-6.13A13.849,13.849,0,0,1,0,114.169v.539a13.971,13.971,0,0,0,4.01,2.994c1.927.963,4.319,2.853,7.886,6.07l1.161,1.06c6.249,5.71,7.086,6.435,8.8,7.372A13.5,13.5,0,0,0,27,133.593c.733.1,1.034.149,1.428.212a10.012,10.012,0,0,1,6.4,3.2,8.358,8.358,0,0,0,3.708,2.418,14.132,14.132,0,0,0,4.185.539c2.224.074,3.121.212,4.051.792q.782.5,1.581.971a18.775,18.775,0,0,0,2,1.023,63.107,63.107,0,0,0,9.485,2.864c3.623.908,5.676,2.846,9.076,7.648l.658.93c3.31,4.664,5.513,6.822,9.217,8.157a15.84,15.84,0,0,1,4.984,2.537,3.165,3.165,0,0,1,1.2,2.247,8.8,8.8,0,0,1-.353,2.715,14.5,14.5,0,0,0-.372,3.113c0,5.5,2.95,10.043,11.226,16.884a11.728,11.728,0,0,1,4.33,8.183c.29,2.6.052,5.107-.729,9.746l-.119.688c-.8,4.705-1.042,6.721-.945,9.143.082,2.072.119,3.794.1,5.572Zm89.391,0h.759a57.243,57.243,0,0,1-.6-5.944c-.074-1.157-.1-1.51-.145-2.083-.484-6.524-1.5-10.1-4.278-12.349a9.63,9.63,0,0,1-3.225-5.951c-.19-.937-.26-1.439-.495-3.411a12.308,12.308,0,0,0-.833-3.854,2.8,2.8,0,0,0-2.749-1.745c-5.312,0-14.313,3.392-19.937,7.514a51.931,51.931,0,0,1-11.806,6.364c-4.847,1.752-8.142,1.64-9.206-.643-.632-1.354-.714-1.529-.986-2.146a22.043,22.043,0,0,1-1.953-6.509,10.632,10.632,0,0,1-.007-2.306,4.43,4.43,0,0,1,1.518-2.734l.491-.51a9.749,9.749,0,0,0,1.826-2.552l.42-.8a5.136,5.136,0,0,1,1.533-2.068c1.957-1.3,5.505-2.046,10.62-2.54q1.679-.16,3.363-.264l.811-.063c3.56-.272,5.624-.58,7.09-1.19,5.222-2.176,12.874-9.827,12.874-13.733a7.853,7.853,0,0,0-2.035-5.256c-.736-.908-4.136-4.356-4.757-5.036a36.249,36.249,0,0,0-6.576-5.453c-1.042-.707-5.5-3.571-6.506-4.274a18.8,18.8,0,0,1-2.358-2.02c-.569-.558-2.589-2.652-2.648-2.715-2.671-2.715-4.724-4.3-7.343-5.349-1.25-.5-3.024-1.038-6.491-2q-2.191-.612-4.382-1.22-2.364-.662-4.712-1.376c-7.588-2.321-12.647-4.493-15.172-6.859-3.251-3.05-4.382-5.148-5.851-9.679a25.366,25.366,0,0,0-1.886-4.731C98.329,101.1,91.2,93.045,85.7,90.783c-5.263-2.169-7.209-4.367-7.209-6.725,0-1.075-1.015-3.125-2.541-5.107a17.545,17.545,0,0,0-6.23-5.274,49.483,49.483,0,0,0-17.639-3.753A12.7,12.7,0,0,1,45.971,68.1c-3.422-1.752-3.757-1.9-5.051-1.9A88.884,88.884,0,0,1,23.9,63.983l-1.443-.365-1.291-.331c-.967-.245-1.611-.4-2.206-.532A14.693,14.693,0,0,0,15.4,62.32a11.87,11.87,0,0,0-3.225.551c-1.7.51-5.1-.335-8.507-2.113A25.319,25.319,0,0,1,0,58.452v.893c4.125,3.028,9.582,5.081,12.383,4.24a11.055,11.055,0,0,1,3.024-.521,14.281,14.281,0,0,1,3.389.417q1.744.393,3.47.856l1.451.368a89.562,89.562,0,0,0,17.2,2.243c1.112,0,1.454.149,4.713,1.819a13.4,13.4,0,0,0,6.446,1.9A48.782,48.782,0,0,1,69.405,74.35,16.822,16.822,0,0,1,75.357,79.4c1.432,1.867,2.388,3.794,2.388,4.657,0,2.7,2.157,5.141,7.67,7.41,5.308,2.187,12.334,10.121,15.809,16.571a24.824,24.824,0,0,1,1.834,4.612c1.506,4.638,2.689,6.84,6.052,9.991,2.634,2.47,7.763,4.676,15.463,7.026q2.354.716,4.724,1.38,2.192.619,4.389,1.22c3.437.96,5.2,1.492,6.413,1.979,2.5,1,4.482,2.529,7.086,5.178.056.056,2.083,2.157,2.66,2.723a19.489,19.489,0,0,0,2.455,2.1c1.019.714,5.486,3.582,6.509,4.278a35.592,35.592,0,0,1,6.446,5.338c.64.707,4.017,4.133,4.728,5.007a7.106,7.106,0,0,1,1.871,4.787c0,3.534-7.439,10.973-12.416,13.049-1.365.569-3.385.87-6.863,1.135q-.807.062-1.614.119c-1.205.086-1.886.138-2.578.2-5.237.51-8.86,1.265-10.954,2.667a5.681,5.681,0,0,0-1.785,2.34l-.413.792a9.057,9.057,0,0,1-1.711,2.388c-.086.089-.409.431-.491.51a5.094,5.094,0,0,0-1.715,3.162,11.425,11.425,0,0,0,0,2.47,22.737,22.737,0,0,0,2.012,6.733c.275.621.357.8.989,2.157,1.3,2.779,4.958,2.9,10.136,1.03a52.771,52.771,0,0,0,12-6.465c5.5-4.036,14.354-7.369,19.495-7.369,1.86,0,2.381,1.123,2.842,4.943q.17,1.746.506,3.47a10.334,10.334,0,0,0,3.485,6.383c2.555,2.076,3.534,5.5,4.006,11.828.041.565.067.919.141,2.072.171,2.607.339,4.46.584,5.9Zm-2.994,0h.379c-.108-.524-.216-1.094-.335-1.707l-.391-2.09c-.93-4.947-1.562-7.41-2.485-8.946a38.829,38.829,0,0,0-2.994-4.1c-3.054-3.854-4.047-5.412-4.047-6.959l.007-.629c.007-.662.007-1-.007-1.4-.078-1.878-.547-3.05-1.726-3.5-1.458-.558-3.865.164-7.484,2.392-3.556,2.187-6.521,3.98-9.638,5.825-.487.29-5.308,3.128-6.573,3.887q-1.2.719-2.388,1.451c-5.141,3.162-14.484,1.878-17.222-2.913a32.7,32.7,0,0,1-2.894-6.442q-.208-.575-.439-1.142a15.724,15.724,0,0,0-1.51-2.842c-3.47-5.2-5.55-9.708-5.55-13.659,0-1.361-.279-2.462-1.25-5.524-.193-.61-.309-.989-.428-1.387-1.354-4.549-1.131-7.112,1.6-8.927a8.592,8.592,0,0,1,3.712-1.406c2.678-.346,5.39.435,8.894,2.187.577.29,2.47,1.28,2.827,1.462q.786.4,1.54.856l1.637.989c4.322,2.574,7.588,3.415,12.2,2.262,1.235-.312,2.321-.521,4.873-.982,4.929-.889,6.956-1.395,8.678-2.4,2.317-1.365,2.775-3.355,1.071-6.193a34.629,34.629,0,0,0-5.371-6.814q-1.5-1.48-3.095-2.849c.026.019-2.291-1.971-2.909-2.518a31.662,31.662,0,0,1-2.418-2.355,43.809,43.809,0,0,0-7.469-6.907,36.277,36.277,0,0,0-13.086-5.8c-13.774-3.214-18.97-4.724-21.883-6.669-3.2-2.131-7.923-9.214-13.7-20.387a30.277,30.277,0,0,0-7.86-9.563,54.74,54.74,0,0,0-6.528-4.549c-2.76-1.718-3.578-2.284-4.233-3.035a7.869,7.869,0,0,1-1.1-1.811c-.227-.484-1.068-2.407-1.116-2.518a28.129,28.129,0,0,0-1.469-2.875c-2.429-4.08-5.963-6.7-11.68-7.737a44.426,44.426,0,0,0-11.04-.856c-1.209.048-1.536.06-2.083.052a16.121,16.121,0,0,1-6.178-1.413,56.561,56.561,0,0,0-22.017-4.478c-1.134,0-2.243.056-3.9.179l-.777.06c-4.631.357-6.725.357-9.426-.234A18.468,18.468,0,0,1,0,66.226v.428a18.792,18.792,0,0,0,5.163,1.964c2.745.6,4.865.6,9.533.242l.774-.06c1.648-.123,2.749-.179,3.872-.179A56.257,56.257,0,0,1,41.218,73.07a16.6,16.6,0,0,0,6.312,1.443c.558.007.889,0,2.105-.052a43.668,43.668,0,0,1,10.962.856c5.6,1.015,9.046,3.563,11.423,7.555a27.077,27.077,0,0,1,1.451,2.838c.045.1.889,2.035,1.12,2.526a8.183,8.183,0,0,0,1.153,1.9c.692.792,1.514,1.361,4.315,3.106a54.93,54.93,0,0,1,6.487,4.519,29.977,29.977,0,0,1,7.77,9.448c5.806,11.233,10.549,18.345,13.822,20.529,2.968,1.979,8.172,3.493,22.009,6.721a35.818,35.818,0,0,1,12.952,5.736,43.4,43.4,0,0,1,7.41,6.855,32.015,32.015,0,0,0,2.444,2.381c.621.551,2.942,2.541,2.916,2.518,1.216,1.056,2.157,1.919,3.072,2.834a34.259,34.259,0,0,1,5.308,6.744c1.6,2.663,1.2,4.423-.941,5.676-1.663.978-3.675,1.484-8.645,2.377q-2.419.4-4.806.967c-4.5,1.127-7.677.312-11.925-2.217l-1.637-.986c-.617-.372-1.1-.644-1.562-.874-.353-.179-2.247-1.168-2.827-1.458-3.567-1.785-6.338-2.581-9.109-2.224a8.964,8.964,0,0,0-3.868,1.462c-2.909,1.938-3.143,4.657-1.748,9.348.119.4.238.781.431,1.391.956,3.02,1.231,4.106,1.231,5.412,0,4.047,2.105,8.607,5.609,13.867a15.354,15.354,0,0,1,1.477,2.775c.138.335.272.677.439,1.131a32.943,32.943,0,0,0,2.916,6.5c2.853,4.992,12.435,6.3,17.743,3.043q1.186-.731,2.381-1.447c1.265-.759,6.085-3.6,6.573-3.887,3.117-1.849,6.085-3.638,9.641-5.825,3.534-2.176,5.84-2.864,7.157-2.366,1,.379,1.413,1.421,1.488,3.165q.025.692.007,1.384l-.007.632c0,1.674,1,3.247,4.285,7.391a36.157,36.157,0,0,1,2.808,3.865c.889,1.477,1.518,3.928,2.44,8.823l.391,2.09.32,1.637Zm-3.906,0h.372c-.011-.126-.015-.253-.015-.372,0-4.609-3.154-12.487-7.127-16.132a9.737,9.737,0,0,1-1.365-1.551,13.313,13.313,0,0,1-1.071-1.823c-.134-.268-.651-1.361-.781-1.622-1.2-2.34-2.544-2.433-6.312.145-.5.335-2.258,1.547-2.381,1.629-.975.67-1.737,1.19-2.492,1.7-1.871,1.261-3.485,2.306-5.025,3.236-5.33,3.225-9.481,4.936-12.688,4.936-6.271,0-12.167-2.213-14.73-5.505a16.21,16.21,0,0,1-1.882-3.582c-.3-.714-.61-1.51-.993-2.529l-1.019-2.727c-1.733-4.627-2.886-7.09-4.3-8.656-2.939-3.27-5.531-13.391-5.531-19.591a17.656,17.656,0,0,0-.379-3.076c-.138-.818-.216-1.339-.275-1.886-.234-2.05-.078-3.519.625-4.609,1.711-2.641,7.328-3.433,14.306-1.778a37.412,37.412,0,0,1,7.045,2.343c1.923.882,6.364,3.623,6.137,3.5,2.5,1.354,4.824,1.544,9.225.484,10.992-2.656,11.319-3.206,5.676-9.972-6.487-7.785-17.527-17.177-20.971-17.177-3.69,0-20.027-4.456-24.468-6.677-3.519-1.759-9.046-7.878-13.7-14.079-.264-.353-5.022-8.034-7.142-11.01-3.478-4.884-6.777-8.388-10.024-10.24a21.044,21.044,0,0,1-6.993-6.967c-.718-1.079-3.913-6.565-4.735-7.592a4.734,4.734,0,0,0-1.681-1.447c-5.234-2.325-9.009-3.363-14.581-3.363H40.552c-1.506,0-2.738-.149-8.529-.93l-1.6-.212a65.668,65.668,0,0,0-8.1-.718c-.617,0-1.1,0-2.243.015A64.2,64.2,0,0,1,3.4,73.833,13.773,13.773,0,0,1,.007,72.6v.417A14.121,14.121,0,0,0,3.318,74.2,64.694,64.694,0,0,0,20.086,75.7c1.146-.011,1.622-.015,2.239-.015a65.694,65.694,0,0,1,8.049.714l1.6.216c5.818.785,7.045.93,8.578.93H51.339c5.509,0,9.24,1.023,14.432,3.333a4.4,4.4,0,0,1,1.54,1.339c.8,1,3.987,6.468,4.717,7.562a21.371,21.371,0,0,0,7.116,7.082c3.188,1.823,6.457,5.293,9.905,10.132,2.113,2.965,6.87,10.653,7.149,11.021,4.687,6.249,10.236,12.394,13.83,14.19,4.486,2.243,20.882,6.714,24.632,6.714,3.281,0,14.28,9.355,20.689,17.043,5.431,6.517,5.278,6.773-5.483,9.374-4.315,1.041-6.547.856-8.961-.446.249.13-4.207-2.615-6.16-3.511a37.811,37.811,0,0,0-7.108-2.369c-7.116-1.685-12.889-.874-14.708,1.942-.763,1.179-.922,2.723-.684,4.85q.114.958.279,1.908a17.472,17.472,0,0,1,.376,3.013c0,6.286,2.615,16.489,5.628,19.837,1.369,1.521,2.514,3.961,4.229,8.54.13.346.818,2.209,1.015,2.727.387,1.027.7,1.823,1,2.544a16.69,16.69,0,0,0,1.934,3.664c2.641,3.4,8.648,5.65,15.024,5.65,3.3,0,7.5-1.73,12.881-4.992,1.544-.934,3.162-1.979,5.04-3.244q1.252-.842,2.5-1.7l2.381-1.633c3.6-2.466,4.69-2.388,5.765-.279.13.253.647,1.347.781,1.618a13.677,13.677,0,0,0,1.1,1.871,10.371,10.371,0,0,0,1.417,1.611c3.894,3.571,7.008,11.349,7.008,15.857l.011.372Zm11.029,0h.409a7.011,7.011,0,0,1-.666-2.976c0-7.439-1.8-15.637-4.519-18.357a16.916,16.916,0,0,1-3.682-4.739,17.352,17.352,0,0,1-1.469-7.778,10.2,10.2,0,0,0-1.254-5.606c-.647-1-1.339-1.566-3.314-2.8a11.768,11.768,0,0,1-1.451-1.038c-1.715-1.473-2.448-2.306-2.872-3.5-.532-1.5-.346-3.363.692-5.959a25.665,25.665,0,0,1,1.484-3l.346-.632q.526-.911.982-1.86c1.919-3.984,1.4-7.03-2.857-11.077a75.882,75.882,0,0,0-9.972-8.016c-1.473-1-6.249-4.017-7.157-4.65a36.7,36.7,0,0,1-2.89-2.343c.007,0-2.689-2.377-3.523-3.087a51.775,51.775,0,0,0-4.854-3.775,16.615,16.615,0,0,0-4.787-2.351c-4.754-1.268-5.8-1.555-8.1-2.221a66.563,66.563,0,0,1-10.467-3.72,16.912,16.912,0,0,0-2.779-1.038c-3.221-.989-4.471-1.525-6.312-3.013-2.522-2.031-4.862-5.3-7.19-10.367-5.94-12.933-7.1-14.652-11.959-18.3A21.364,21.364,0,0,0,89.231,88.6l-.867-.387c-4.438-1.99-6.275-3.322-7.848-6.465a12.988,12.988,0,0,1-1.254-4.564,7.246,7.246,0,0,0-1.313-3.813c-.956-1.265-2.615-2.332-5.341-3.351a46.853,46.853,0,0,0-4.482-1.387A56.585,56.585,0,0,0,53.4,66.468c-2.567-.082-3.534-.208-4.709-.744a7.719,7.719,0,0,1-1.332-.785A13.021,13.021,0,0,0,42.43,62.83a28.33,28.33,0,0,0-6.956-.539L34.6,62.3c-1.049,0-2.529-.372-7.328-1.745-4.028-1.146-5.933-1.6-7.179-1.6a8.39,8.39,0,0,0-1.32.153l-1.864.335a20.841,20.841,0,0,1-9.355-.078,13.616,13.616,0,0,1-7.547-5.3v.61a13.836,13.836,0,0,0,7.45,5.04,21.118,21.118,0,0,0,9.515.086l1.86-.335a8.64,8.64,0,0,1,1.261-.145c1.19,0,3.095.454,7.343,1.666C32.03,62.3,33.5,62.666,34.6,62.666l.878-.007a27.805,27.805,0,0,1,6.87.528,12.808,12.808,0,0,1,4.791,2.046,7.96,7.96,0,0,0,1.395.826c1.235.558,2.232.7,4.85.777a56.192,56.192,0,0,1,14.644,2.146q2.255.577,4.445,1.376c2.667,1,4.274,2.031,5.181,3.229a6.981,6.981,0,0,1,1.239,3.645A13.219,13.219,0,0,0,80.185,81.9a11.382,11.382,0,0,0,3.593,4.259,22.49,22.49,0,0,0,4.438,2.381l.859.387a21.038,21.038,0,0,1,4.185,2.34c4.8,3.6,5.925,5.271,11.847,18.152,2.347,5.118,4.724,8.436,7.291,10.508,1.89,1.525,3.173,2.072,6.435,3.076a16.606,16.606,0,0,1,2.727,1.015,67.46,67.46,0,0,0,10.527,3.742q4.04,1.163,8.109,2.221a16.336,16.336,0,0,1,4.672,2.3,51.09,51.09,0,0,1,4.817,3.746c.833.714,3.526,3.087,3.526,3.087a36.525,36.525,0,0,0,2.916,2.369c.915.64,5.7,3.656,7.164,4.65a75.508,75.508,0,0,1,9.928,7.979c4.14,3.935,4.624,6.807,2.779,10.649q-.452.939-.975,1.841l-.35.632a25.978,25.978,0,0,0-1.5,3.039c-1.071,2.678-1.265,4.635-.7,6.223.454,1.276,1.22,2.146,2.983,3.66a15.849,15.849,0,0,0,1.971,1.365,7.428,7.428,0,0,1,2.719,2.388,9.808,9.808,0,0,1,1.2,5.4,17.7,17.7,0,0,0,1.506,7.938A17.108,17.108,0,0,0,186.6,202.1c2.63,2.63,4.408,10.75,4.408,18.1a7.269,7.269,0,0,0,.632,2.976Zm-105.1,0h.376l.409-2.157c1.146-6.048,1.506-9.746,1.019-13.859a31.894,31.894,0,0,1-.2-5.691,11.327,11.327,0,0,0-.071-2.838c-.29-1.6-1.28-3.173-3.865-6.078-3.374-3.794-4.56-5.732-7.365-11.215-.5-.982-.867-1.663-1.257-2.343-.335-.588-.677-1.138-1.03-1.674-1.168-1.748-2.615-3.132-6.264-6.253-4.173-3.571-5.765-5.155-6.744-7.116-.26-.521-.484-1.042-.718-1.637q-.285-.75-.554-1.506c-1.35-3.7-2.979-5.181-8.518-6.625-1.856-.484-7.644-1.908-7.953-1.986-6.022-1.525-9.422-2.738-12.453-4.687-2.18-1.4-2.172-1.4-10.289-6.149l-.967-.565c-3.805-2.232-6.361-3.794-8.455-5.189q-1.679-1.112-3.273-2.343-1.19-.938-2.369-1.89a32.638,32.638,0,0,0-6-3.813v.417a31.9,31.9,0,0,1,5.762,3.682c-.067-.052,1.771,1.428,2.373,1.9q1.6,1.24,3.292,2.362c2.1,1.4,4.661,2.961,8.473,5.2l.967.569c8.109,4.743,8.1,4.739,10.277,6.137,3.076,1.979,6.506,3.2,12.565,4.735.309.078,6.1,1.5,7.945,1.983,2.987.781,4.891,1.674,6.119,2.79a7.94,7.94,0,0,1,2.146,3.608l.558,1.514q.325.848.729,1.663c1.012,2.027,2.619,3.627,6.837,7.235,3.619,3.095,5.059,4.471,6.193,6.175q.537.81,1.019,1.655c.391.673.748,1.35,1.246,2.325,2.819,5.509,4.025,7.469,7.424,11.293,2.541,2.864,3.5,4.382,3.775,5.9a11.248,11.248,0,0,1,.063,2.753,32.971,32.971,0,0,0,.2,5.754c.484,4.062.126,7.733-1.015,13.744l-.417,2.228Zm28.489,0h.781l-.517-1.6a39.658,39.658,0,0,1-1-3.868c-.986-4.735-1.216-8.79-1.216-15.362,0-2.124.692-3.627,1.536-3.627,1.094,0,2.589,2.087,4.066,6.353,3.642,10.545,8.418,15.5,15.968,15.5,8.339,0,10.884-.5,18.011-3.753a32.623,32.623,0,0,0,3.5-1.875c1.1-.67,4.754-3.188,5.52-3.615,1.562-.878,2.6-1.008,3.615-.368a4.153,4.153,0,0,1,.707.577,21.446,21.446,0,0,0,1.6,1.436q.563.461,1.138.908l.372.3c3.095,2.462,4.214,4.229,4.214,7.882,0,.379.007.748.026,1.116h.744c-.019-.368-.026-.736-.026-1.116,0-3.913-1.239-5.87-4.5-8.466q-.371-.3-.744-.6c-.309-.238-.532-.42-.755-.6a20.751,20.751,0,0,1-1.551-1.391,5.007,5.007,0,0,0-.833-.677c-1.291-.818-2.6-.651-4.378.346-.8.45-4.475,2.976-5.542,3.63a31.879,31.879,0,0,1-3.43,1.834c-7.019,3.2-9.459,3.686-17.7,3.686-7.16,0-11.713-4.724-15.273-15-1.577-4.557-3.221-6.852-4.765-6.852-1.413,0-2.28,1.882-2.28,4.371,0,6.621.234,10.713,1.227,15.511a39.85,39.85,0,0,0,1.023,3.943c.149.484.3.941.443,1.376Zm55.516,0-.186-.35q-1.328-2.409-2.429-4.932c-1.015-2.34-2.15-3.586-3.437-3.913-1.391-.353-2.66.275-4.672,1.908s-2.258,1.808-2.875,1.9a17.745,17.745,0,0,0-3.3,1.1c-.484.186-4.01,1.618-5.152,2.064s-2.176.837-3.158,1.183q-1.73.614-3.217,1.045h1.283c.655-.208,1.339-.439,2.061-.7q1.592-.568,3.165-1.187c1.146-.446,4.676-1.875,5.155-2.064a18.407,18.407,0,0,1,3.21-1.079c.722-.1.941-.26,3.058-1.971,1.923-1.562,3.11-2.15,4.348-1.837,1.153.29,2.209,1.458,3.184,3.7q1.145,2.626,2.537,5.133Zm-41.991,0a11.286,11.286,0,0,1-4.192-2.332,14.036,14.036,0,0,1-1.986-2.34c-.391-.543-.8-1.153-1.268-1.875q-.47-.722-.93-1.451l-.175-.279-.346-.547q-.575-.923-1.209-1.808a2.628,2.628,0,0,0-.908-.915c-.379-.138-.554.179-.554.759l0,.785a43.851,43.851,0,0,0,.26,6.074,18,18,0,0,0,.885,3.928h.4a17.284,17.284,0,0,1-.911-3.973,43.09,43.09,0,0,1-.26-6.026l0-.789c0-.361.03-.417.056-.409a2.676,2.676,0,0,1,.733.781q.628.877,1.2,1.793l.342.543.179.279q.464.73.93,1.458c.469.725.885,1.339,1.28,1.89a14.047,14.047,0,0,0,2.046,2.4,11.482,11.482,0,0,0,3.325,2.053h1.108Zm68.338,0h.51a7.6,7.6,0,0,1-1.93-5.579c0-6.919.015-6.454-.379-7.726a10.681,10.681,0,0,0-1.216-2.466c-.156-.26-1.83-2.9-2.522-4.04-1.131-1.849-4.107-6.137-4.542-6.9-1.294-2.262-1.756-4.486-1.756-8.994,0-2.92-.93-5.282-3.013-8.719l-1.056-1.722q-.491-.8-.926-1.637a7.718,7.718,0,0,1-.975-3.08,5.22,5.22,0,0,1,1.823-4.054c1.908-1.9,3.2-2.02,4.166-.688.789,1.086,1.294,2.879,1.882,6.126.074.383.3,1.711.3,1.7a30.047,30.047,0,0,0,.781,3.571,10.553,10.553,0,0,0,3.11,4.56l1.213,1.19a13.3,13.3,0,0,1,4.226,7.253l.431,2.053c.324,1.525.58,2.619.867,3.7,1.365,5.111,3.589,9.66,8.4,16.634,2.857,4.144,4.11,7.019,4.062,8.823h.372c.045-1.919-1.246-4.854-4.129-9.031-4.787-6.945-6.993-11.457-8.347-16.523-.286-1.071-.539-2.157-.863-3.679l-.431-2.05a13.626,13.626,0,0,0-4.33-7.439c-.234-.238-1.056-1.041-1.209-1.194a10.214,10.214,0,0,1-3.02-4.4,30.35,30.35,0,0,1-.77-3.526l-.3-1.7c-.6-3.31-1.116-5.133-1.949-6.282-1.116-1.544-2.678-1.406-4.728.647a5.571,5.571,0,0,0-1.934,4.337,8.073,8.073,0,0,0,1.015,3.229q.44.846.937,1.659l1.056,1.722c2.053,3.385,2.961,5.691,2.961,8.525,0,4.568.476,6.855,1.8,9.18.446.781,3.426,5.077,4.545,6.911.7,1.138,2.369,3.787,2.522,4.04a10.356,10.356,0,0,1,1.179,2.381c.379,1.22.365.781.365,7.618a8.153,8.153,0,0,0,1.793,5.579ZM107.84-.006h-.394c.138.335.286.681.446,1.049a20.767,20.767,0,0,1,2.027,9.366c0,2.842.781,4.315,2.47,4.854,1.287.409,2.128.365,6.535-.16a35.307,35.307,0,0,1,10.475-.052c2.321.926,9.638,2.611,11.951,2.611a111.248,111.248,0,0,0,20.131-2.607,8.213,8.213,0,0,1,6.3.922c1.506.867,2.637,1.871,5.17,4.452,2.336,2.377,3.545,3.433,5.133,4.278,2.637,1.41,4.173,2.846,4.984,4.564.677,1.432.867,2.916.867,5.687,0,1.637.986,2.488,3.515,3.623-.037-.019,1.1.487,1.428.636,3.266,1.51,4.728,3.084,4.728,6.156,0,4.657,1.808,7.149,6.45,10.4l1.7,1.168c.707.484,1.227.856,1.737,1.227.342.253.666.5.975.744,2.663,2.09,4.092,5.408,5.788,12.379.234.956,1.227,5.208,1.514,6.376q.864,3.622,1.934,7.19c.51,1.674,1.674,5.606,1.845,6.149a10.52,10.52,0,0,0,.915,2.351c.305.521,2.548,3.377,4.7,6.8l2.016,3.24v-.707l-1.7-2.734q-2.205-3.485-4.691-6.781c.112.186-.5-1.042-.885-2.276-.167-.536-1.332-4.467-1.841-6.149-.681-2.243-1.28-4.5-1.931-7.168-.283-1.164-1.28-5.416-1.51-6.376-1.718-7.049-3.169-10.422-5.922-12.584-.312-.249-.64-.495-.986-.748-.513-.379-1.042-.748-1.748-1.235l-1.689-1.168c-4.557-3.188-6.294-5.583-6.294-10.1,0-3.251-1.562-4.932-4.943-6.491-.327-.153-1.473-.658-1.432-.644-2.4-1.079-3.3-1.849-3.3-3.281,0-2.827-.2-4.352-.9-5.844-.852-1.8-2.444-3.292-5.148-4.735-1.544-.822-2.734-1.86-5.263-4.438a22.854,22.854,0,0,0-5.029-4.289,8.581,8.581,0,0,0-6.58-.963,110.558,110.558,0,0,1-20.042,2.6c-2.269,0-9.571-1.685-11.873-2.6a35.621,35.621,0,0,0-10.6.048c-4.326.513-5.17.558-6.379.175-1.51-.484-2.209-1.8-2.209-4.5,0-3.757-.58-6.063-2.455-10.415Zm-9.344,0h-.372c-.019,2.09-.1,4.27-.242,7.216-.175,3.608-.238,5.42-.238,8.034a10.036,10.036,0,0,0,4.873,8.615,24.834,24.834,0,0,0,9.05,3.47,59.55,59.55,0,0,0,8.436.086c2.507-.063,3.478-.082,4.609-.082a8.031,8.031,0,0,1,2.838.506c.327.112,1.692.647,2.076.785a25.858,25.858,0,0,0,9.221,1.313,20.2,20.2,0,0,0,8.354-1.823l1.183-.465c4.668-1.811,7.912-1.916,13.83.417,4.147,1.633,6.744,3.422,8.287,5.509,1.172,1.585,1.611,2.9,2.209,5.877a17.9,17.9,0,0,0,1.3,4.512,5.2,5.2,0,0,0,2.63,2.686,11.3,11.3,0,0,0,3.467.815c3.363.472,4.75,1.149,5.806,3.563a19.713,19.713,0,0,0,5.289,7.35c.893.811,4.888,4.1,5.918,4.992,3.05,2.641,5.152,6.461,6.956,11.892q.651,1.977,1.216,3.98c0,.019.841,2.965,1.071,3.757,3.158,10.731,6.651,19.7,9.719,22.764a38.289,38.289,0,0,1,3.868,4.821,40.361,40.361,0,0,0,3.329,4.129v-.577a51.394,51.394,0,0,1-3.526-4.452,32.8,32.8,0,0,0-3.411-4.181c-3-3.005-6.487-11.955-9.623-22.616-.231-.781-1.064-3.731-1.071-3.749-.45-1.577-.822-2.8-1.22-3.995-1.823-5.487-3.954-9.359-7.067-12.052-1.034-.9-5.022-4.185-5.911-4.984a19.366,19.366,0,0,1-5.2-7.227,5.54,5.54,0,0,0-2.678-2.924,10.96,10.96,0,0,0-3.545-.878,10.6,10.6,0,0,1-3.236-.766,4.819,4.819,0,0,1-2.448-2.5,17.525,17.525,0,0,1-1.276-4.426c-.61-3.028-1.06-4.385-2.273-6.026-1.592-2.154-4.244-3.98-8.455-5.639-6.007-2.366-9.347-2.258-14.1-.413l-1.187.469a19.874,19.874,0,0,1-8.217,1.793,25.515,25.515,0,0,1-9.1-1.291c-.372-.134-1.741-.67-2.076-.785a8.369,8.369,0,0,0-2.961-.528c-1.134,0-2.109.019-5.234.1a54.746,54.746,0,0,1-7.748-.093,24.532,24.532,0,0,1-8.9-3.411,9.679,9.679,0,0,1-4.709-8.31c0-2.6.063-4.412.26-8.444C98.407,4.1,98.482,2.028,98.5-.006Zm89.77,0h-.759a11.177,11.177,0,0,0,1.127,3.523,23.769,23.769,0,0,1,1.957,4.847,15.043,15.043,0,0,0,.722,1.871c.833,1.733,2.2,3.273,4.862,5.3,2.979,2.28,5.308,6.156,7.45,11.736.893,2.317,3.255,9.533,3.586,10.419,1,2.663,2.44,4.724,5.814,8.808l1,1.205a30.282,30.282,0,0,1,4.359,6.379,15.085,15.085,0,0,0,4.8,5.263v-.893a13.573,13.573,0,0,1-4.129-4.687,31,31,0,0,0-4.456-6.532l-1-1.213c-3.325-4.017-4.731-6.033-5.691-8.592-.327-.867-2.693-8.087-3.589-10.426-2.191-5.695-4.575-9.671-7.692-12.055-2.574-1.971-3.868-3.422-4.642-5.04a14.125,14.125,0,0,1-.688-1.782,24.325,24.325,0,0,0-2.009-4.962,10.3,10.3,0,0,1-1.023-3.173Zm-3.374,0h-.379c.617,3.087,1.082,4.713,1.689,5.676a22,22,0,0,1,1.525,3.054c.472,1.116.908,2.306,1.3,3.5a11.073,11.073,0,0,0,.9,2q2.472,2.385,4.765,4.947a19.464,19.464,0,0,1,2.66,3.593,26.454,26.454,0,0,1,1.343,4.824c.238,1.079,1.358,6.379,1.678,7.837,1.35,6.119,2.466,9.928,3.682,11.9,2.849,4.631,3.958,5.844,13.792,15.288a25.956,25.956,0,0,0,5.338,4.036v-.428a25.811,25.811,0,0,1-5.077-3.876c-9.82-9.422-10.906-10.62-13.733-15.213-1.19-1.927-2.3-5.717-3.638-11.791-.32-1.454-1.439-6.755-1.678-7.834a26.153,26.153,0,0,0-1.376-4.91,19.573,19.573,0,0,0-2.712-3.679c-.335-.383-.692-.781-1.064-1.183-.893-.967-1.845-1.942-2.8-2.886-.335-.327-.644-.632-1.254-1.265a47.993,47.993,0,0,0-1.778-5.007,22.346,22.346,0,0,0-1.559-3.106c-.565-.908-1.019-2.5-1.622-5.483Zm7.153,0h-.409a10.648,10.648,0,0,0,4.248,4.575,18.01,18.01,0,0,0,9.072,2.678c3.311,0,4.389,2.6,4.367,8,0,.632-.015,1.179-.045,2.228-.037,1.227-.045,1.655-.045,2.228a26.336,26.336,0,0,0,.748,6.137,24.8,24.8,0,0,0,.8,2.593q1.292,2.954,2.6,5.9,3.655,8.18,7.4,16.318a20.323,20.323,0,0,0,2.4,4.017v-.614a20.41,20.41,0,0,1-2.064-3.56q-4.752-10.346-9.355-20.759c-.2-.446-.368-.829-.908-2.195a25.751,25.751,0,0,1-1.25-7.837c0-.565.011-.989.045-2.213.03-1.053.045-1.6.045-2.236a14.965,14.965,0,0,0-.77-5.706,3.972,3.972,0,0,0-3.969-2.674,17.655,17.655,0,0,1-8.875-2.622A10.4,10.4,0,0,1,192.05-.006Zm-105.129,0h-.376A35.377,35.377,0,0,0,85.679,6.8a45.912,45.912,0,0,0-.138,10.352,17.308,17.308,0,0,0,2.466,7.867c4.218,6.137,14.8,10.869,24.7,10.869,1.893,0,3.894.1,6.067.309q4.549.453,9.065,1.175c8.02,1.213,10.289,1.492,13.51,1.492a25.516,25.516,0,0,0,8.068-1.451l1.034-.309c.517-.153.945-.275,1.358-.379a12.45,12.45,0,0,1,8.072.268,6.07,6.07,0,0,1,3.411,3.043,18.217,18.217,0,0,1,1.5,4.772,17.567,17.567,0,0,0,1.484,4.7,6.011,6.011,0,0,0,3.664,3.11q1.8.551,3.534,1.272a11.174,11.174,0,0,1,5.133,3.894c.495.651.383.484,2.02,2.939a17.5,17.5,0,0,0,3.154,3.4c.748.655,3.984,3.284,4.791,3.98a27.32,27.32,0,0,1,6.186,7.119c1.57,2.715,2.9,6.807,4.2,12.372.324,1.387.64,2.842.982,4.516l.439,2.157.405,2.027a56.1,56.1,0,0,0,1.4,6.048c2.529,7.6,6.42,15.682,10.091,19.045a25.3,25.3,0,0,0,4.129,3.3c.335.2.684.387,1.086.584.164.082,3.571,1.637,5.245,2.477l.454.231v-.42l-.29-.145c-1.681-.841-5.085-2.4-5.245-2.474q-.539-.266-1.056-.573a25.11,25.11,0,0,1-4.069-3.247c-3.612-3.311-7.477-11.349-9.995-18.892a57.17,57.17,0,0,1-1.387-6l-.409-2.031q-.648-3.353-1.421-6.681c-1.3-5.6-2.641-9.723-4.237-12.476a27.772,27.772,0,0,0-6.26-7.216c-.815-.7-4.047-3.329-4.791-3.98a16.828,16.828,0,0,1-3.087-3.322c-1.648-2.47-1.533-2.3-2.035-2.961a11.559,11.559,0,0,0-5.286-4.01c-.971-.417-2.135-.833-3.567-1.287a5.643,5.643,0,0,1-3.448-2.924,18.277,18.277,0,0,1-1.5-4.832,17.531,17.531,0,0,0-1.48-4.642,6.439,6.439,0,0,0-3.608-3.221,12.853,12.853,0,0,0-8.295-.279c-.417.108-.848.227-1.369.383l-1.387.413a24.179,24.179,0,0,1-7.61,1.332c-3.2,0-5.457-.279-13.458-1.488q-4.521-.724-9.08-1.179c-2.187-.2-4.2-.309-6.1-.309-9.783,0-20.254-4.679-24.4-10.705a17.044,17.044,0,0,1-2.4-7.7,45.8,45.8,0,0,1-.007-8.89q.088-.954.212-1.9a29.97,29.97,0,0,1,.8-6.323Zm129.243,0h-.383A29.367,29.367,0,0,0,217.8,6.02a11.971,11.971,0,0,1,.9,5.539,40.483,40.483,0,0,1-.848,6c-.405,2.187-.584,3.262-.722,4.538a15.678,15.678,0,0,0,1.042,8.477q2.337,5.143,5.007,10.125v-.789q-2.477-4.674-4.664-9.493a15.244,15.244,0,0,1-1.012-8.284c.134-1.265.312-2.329.718-4.508a40.446,40.446,0,0,0,.852-6.052,12.294,12.294,0,0,0-.93-5.7,28.831,28.831,0,0,1-1.986-5.877Zm-104.325,0a26.329,26.329,0,0,0,1.826,4.181,18,18,0,0,1,1.808,4.456l.149.67.1.539a1.964,1.964,0,0,0,.275.77c.275.383.718.476,1.908.465-.342,0,3.664-.108,5.591-.108a65.26,65.26,0,0,1,10.958.952c6.275.989,6.595,1.03,8.8.937a15.835,15.835,0,0,0,2.976-.405c6.584-1.547,17.177-2.18,20.354-1.12a12.883,12.883,0,0,1,3.541,2.079q1.255.973,2.433,2.038c.521.465,3.411,3.162,4.01,3.66.539.446,3.043,2.76,3.292,2.983q.827.747,1.692,1.451c1.856,1.5,3.311,2.306,4.434,2.306,1.309.019,1.607,0,1.912-.149.42-.208.558-.64.42-1.328-.275-1.35-1.663-4.032-4.776-9.225A40.726,40.726,0,0,1,179.161,5.4a32.56,32.56,0,0,1-1.1-5.408h-.376a33.248,33.248,0,0,0,1.12,5.513,41.143,41.143,0,0,0,4.426,9.835c3.087,5.148,4.464,7.815,4.724,9.106.112.539.03.8-.219.919a2.867,2.867,0,0,1-1.294.112c-1.458,0-2.86-.781-4.65-2.224-.521-.42-1.068-.889-1.678-1.436-.245-.219-2.756-2.541-3.3-2.994-.591-.495-3.474-3.18-4-3.653-.893-.8-1.692-1.473-2.455-2.057a13.216,13.216,0,0,0-3.649-2.135c-3.258-1.086-13.915-.454-20.559,1.112a15.47,15.47,0,0,1-2.905.394c-2.172.093-2.492.052-8.73-.934a65.487,65.487,0,0,0-11.01-.956c-1.934,0-5.948.112-5.6.108-1.068.011-1.428-.063-1.6-.309a1.638,1.638,0,0,1-.216-.632l-.1-.532-.149-.688A18.651,18.651,0,0,0,113.989,4a25.851,25.851,0,0,1-1.759-4h-.394Zm3.2,0c2.2,6.673,3.552,8.183,7.35,8.183,1.674,0,3.8.119,10.672.558l.569.037c5.8.368,8.73.521,10.705.521a84.746,84.746,0,0,0,10.735-1.22l.573-.086c6.852-1.019,8.976-1.3,10.638-1.3a6.79,6.79,0,0,1,4.077,1.242c.037.022.67.435.856.547a4.463,4.463,0,0,0,2.507.815,1.369,1.369,0,0,0,1.529-1.57,8.492,8.492,0,0,0-.186-1.525c-.06-.305-.335-1.637-.4-1.979a28.571,28.571,0,0,1-.547-4.226h-.744a29.478,29.478,0,0,0,.558,4.371c.071.35.342,1.674.4,1.975a7.824,7.824,0,0,1,.175,1.384c0,.632-.171.826-.785.826a3.762,3.762,0,0,1-2.12-.707c-.175-.1-.8-.51-.841-.536a7.516,7.516,0,0,0-4.478-1.361c-1.718,0-3.831.275-10.75,1.306l-.569.086a84.964,84.964,0,0,1-10.627,1.213c-1.953,0-4.876-.153-10.657-.521l-.573-.037c-6.9-.439-9.016-.558-10.716-.558-3.329,0-4.519-1.265-6.569-7.439Zm55.516,0h-.42a8.007,8.007,0,0,1,1.03,2.3c.056.417-.156.61-.863.729a27.153,27.153,0,0,1-4.021.13,64.149,64.149,0,0,0-7.941.6c-1.469.186-2.987.409-4.884.7-8.927,1.376-8.369,1.3-9.98,1.3-8.935,0-19.279-.833-22.485-2.581a5.761,5.761,0,0,1-2.455-3.184h-.4a6.184,6.184,0,0,0,2.678,3.511c3.284,1.793,13.64,2.626,22.66,2.626,1.64,0,1.056.082,10.036-1.3,1.9-.3,3.411-.513,4.873-.7a63.554,63.554,0,0,1,7.9-.6,26.525,26.525,0,0,0,4.08-.138c.885-.149,1.257-.491,1.172-1.142a7.285,7.285,0,0,0-.978-2.254Zm-28.418,0a19.8,19.8,0,0,1-5.241.93,28.23,28.23,0,0,1-8.332-.93h-1.108c2.329.941,5.274,1.3,9.44,1.3a22.833,22.833,0,0,0,6.521-1.3h-1.283Zm54.761,0a8.125,8.125,0,0,0,4.471,2.429,19.267,19.267,0,0,0,4.806.372q.325-.009.651-.011c2,0,3.3-.461,3.757-1.849a3.2,3.2,0,0,0,.149-.941h-.368a2.823,2.823,0,0,1-.134.826c-.394,1.179-1.551,1.592-3.4,1.592l-.655.007a18.747,18.747,0,0,1-4.72-.361,7.9,7.9,0,0,1-4.036-2.064h-.51Zm26.294,77.321c-2.719-.06-4.278,1.239-4.278,4.14,0,4.244,1.878,10.545,4.278,15.437v-.856c-2.206-4.731-3.906-10.59-3.906-14.581,0-2.671,1.376-3.831,3.906-3.768Zm0,2.622a1.67,1.67,0,0,0-1.068.487c-.521.55-.6,1.384-.431,2.819l.06.484a10.759,10.759,0,0,1,.138,1.447,24.91,24.91,0,0,0,1.3,5.914V89.8a20.354,20.354,0,0,1-.93-4.631,11.157,11.157,0,0,0-.138-1.5l-.06-.48c-.156-1.324-.089-2.079.327-2.518a1.3,1.3,0,0,1,.8-.372Zm0,72.9v-.547a8.06,8.06,0,0,1-1.1-1.748,37.621,37.621,0,0,1-1.7-4.423c-2.92-8.76-2.913-9.894-.093-11.308a4.548,4.548,0,0,1,2.894-.339v-.379a4.873,4.873,0,0,0-3.058.387c-3.065,1.533-3.072,2.827-.093,11.754a36.637,36.637,0,0,0,1.711,4.471A7.744,7.744,0,0,0,223.183,152.835ZM210.67,168.122a15.6,15.6,0,0,1-3.1-.487l-.885-.175c-3.072-.584-4.731-.484-5.4.867-.513,1.023.175,2.18,1.767,3.6q.912.8,1.89,1.514c.35.26,1.819,1.335,2.154,1.588a7.357,7.357,0,0,1,1.291,1.127,7.1,7.1,0,0,1,1.075,2.046c-.026-.074,1.5,5.077,2.589,8.265,1,2.92,2.068,3.987,3.281,3.2.785-.521,1.361-1.577,2.455-4.1a28.666,28.666,0,0,1,1.265-2.753c1.692-3.043,1.451-8.89.019-12.227a3.571,3.571,0,0,0-2.6-2.217,16.31,16.31,0,0,0-4.382-.249l-1.413.007Zm0,.744c.42,0,.777,0,1.421-.007,4.49-.048,5.516.212,6.286,2.012,1.35,3.151,1.585,8.76.019,11.576a28.163,28.163,0,0,0-1.3,2.82c-1.012,2.343-1.577,3.377-2.18,3.772s-1.3-.3-2.165-2.808q-1.367-4.114-2.593-8.273a7.821,7.821,0,0,0-1.183-2.247,7.734,7.734,0,0,0-1.436-1.276c-.342-.26-1.811-1.328-2.157-1.588-.751-.558-1.339-1.03-1.841-1.477-1.35-1.2-1.893-2.12-1.6-2.708.45-.9,1.886-.986,4.6-.472l.874.175A16.025,16.025,0,0,0,210.67,168.866ZM82.108,223.173c1.283-4.56,1.4-5.256,1.4-7.067,0-1.239.048-2.332.16-4.218.234-3.842.242-5.022-.1-6.349a3.255,3.255,0,0,0-3.6-2.641H70.305c-1.518,0-1.931.688-2.206,2.645-.037.294-.048.361-.071.491-.312,1.99-1.041,2.82-3.3,2.82-1.354,0-2.061.149-2.392.51-.283.309-.283.536-.134,1.462.316,1.957-.186,3.292-2.79,5.133-2.351,1.655-4.326,1.994-6.156,1.254-1.413-.573-2.5-1.547-4.434-3.72l-.409-.457-.405-.458q-.488-.545-1-1.064a13.321,13.321,0,0,0-3.56-2.5c-.565-.283-.64-.32-2.105-.978A11.171,11.171,0,0,1,36.97,205.2a10.568,10.568,0,0,0-2.492-2.247c-1.183-.688-2.031-.792-5.089-.792-2.224,0-3.928-1.607-6.7-5.576l-1.049-1.5c-.394-.558-.722-1-1.038-1.41-2.927-3.764-7.209-3.868-11.434.357-2.061,2.057-3.783,7.227-5.074,14.324a109.1,109.1,0,0,0-1.663,14.819h.372a109.3,109.3,0,0,1,1.655-14.752c1.276-7.019,2.983-12.145,4.969-14.131,4.073-4.073,8.094-3.973,10.884-.387.309.4.632.841,1.023,1.395l1.045,1.5c2.846,4.073,4.6,5.736,7,5.736,2.991,0,3.8.1,4.9.744a10.036,10.036,0,0,1,2.4,2.169,11.544,11.544,0,0,0,4.5,2.931q1.059.452,2.09.967a12.959,12.959,0,0,1,3.467,2.433q.725.727,1.395,1.506l.409.461c1.964,2.213,3.084,3.214,4.568,3.813,1.957.792,4.062.435,6.509-1.294,2.727-1.923,3.281-3.4,2.946-5.494-.126-.789-.126-.967.037-1.153.238-.257.87-.387,2.12-.387,2.466,0,3.333-.978,3.671-3.132l.074-.5c.249-1.793.569-2.321,1.834-2.321h9.671a2.889,2.889,0,0,1,3.236,2.358c.327,1.276.316,2.444.086,6.234q-.148,2.117-.16,4.24c0,1.778-.119,2.466-1.417,7.067h.387Zm-5.088,0a20.451,20.451,0,0,0,.506-5.52c-.015-.26-.037-.536-.067-.885l-.086-.952c-.126-1.417-.186-2.593-.186-4.173,0-1.838-.543-2.886-1.566-3.132-.885-.216-2.068.2-3.422,1.116a19.432,19.432,0,0,0-6.156,7.153c-1.774,4.255-5.252,5.836-12.476,5.836a10.581,10.581,0,0,1-7.689-2.931c-.539-.469-5.6-5.579-7.811-7.439a11.4,11.4,0,0,0-7.67-3.095,11.975,11.975,0,0,1-4.255-.878,17.267,17.267,0,0,1-5.542-4.2c-2.764-2.886-4.929-3.318-6.5-1.6-1.235,1.35-2.031,3.935-2.537,7.529-.272,1.923-.35,2.879-.588,6.465-.093,1.395-.063,1.979.342,6.707h.372c-.405-4.724-.435-5.312-.342-6.684.238-3.571.316-4.523.584-6.435.495-3.523,1.276-6.052,2.44-7.328,1.4-1.529,3.322-1.146,5.951,1.607A17.674,17.674,0,0,0,26,208.611a12.024,12.024,0,0,0,4.315.908,11.088,11.088,0,0,1,7.514,3.013c2.195,1.845,7.253,6.956,7.811,7.436a10.943,10.943,0,0,0,7.93,3.02c7.357,0,10.973-1.644,12.818-6.063a19.1,19.1,0,0,1,6.026-6.989,4.418,4.418,0,0,1,3.124-1.064c.818.2,1.28,1.086,1.28,2.771,0,1.592.06,2.779.186,4.207l.086.952c.033.346.052.614.071.874a20.314,20.314,0,0,1-.517,5.5h.379Zm-42.311,0c-.937-1.213-3.322-4.385-4.054-5.319a14.674,14.674,0,0,0-7.216-5.185c-2.607-.636-4.278.539-4.278,3.437,0,1.5.015,1.919.275,7.067h.372c-.26-5.152-.275-5.579-.275-7.067,0-2.648,1.436-3.656,3.816-3.072a14.34,14.34,0,0,1,7.012,5.048c.692.878,2.846,3.746,3.88,5.092h.469ZM38.376,97.092a38.745,38.745,0,0,1-4.255,2.883c-.394.238-3.132,1.823-3.85,2.269-4.192,2.6-5.579,4.966-4.594,9.422a8.322,8.322,0,0,0,3.493,5.371,19.463,19.463,0,0,0,5.981,2.44,42.986,42.986,0,0,1,7,2.336,22.382,22.382,0,0,1,2.905,1.555c4.133,2.63,7.1,2.864,10.4,1.22,1.324-.658,6.4-4.092,6.4-4.1q.95-.6,1.934-1.142c5.966-3.284,12.747-8.987,12.84-11.847.041-1.287-.74-2.444-2.336-3.816-.383-.335-.811-.673-1.369-1.1-.268-.2-1.257-.952-1.466-1.116a19.034,19.034,0,0,1-3.467-3.143c-4.136-5.141-9.876-10.668-12.781-12.007-4.486-2.061-7.38-2.146-10.181.045-1.209.945-2.1,2.433-3.191,4.966-.108.242-.856,2.027-1.071,2.507a7.407,7.407,0,0,1-1.577,2.581c-.268.223-.539.446-.818.67Zm1.3-.1a7.948,7.948,0,0,0,1.774-2.846c.216-.484.967-2.276,1.071-2.514,1.045-2.418,1.89-3.831,2.968-4.672,2.541-1.99,5.152-1.916,9.411.045,2.771,1.272,8.444,6.74,12.513,11.8a19.656,19.656,0,0,0,3.6,3.27l1.466,1.108q.683.516,1.335,1.071c1.44,1.239,2.109,2.232,2.076,3.232-.078,2.47-6.747,8.079-12.453,11.215-.655.361-1.3.744-1.971,1.164-.045.03-5.062,3.43-6.335,4.062-3.058,1.525-5.751,1.309-9.671-1.183a23.125,23.125,0,0,0-3-1.6,42.971,42.971,0,0,0-7.1-2.373,18.817,18.817,0,0,1-5.765-2.343,7.537,7.537,0,0,1-3.184-4.917c-.908-4.1.309-6.175,4.259-8.63.707-.439,3.433-2.016,3.839-2.262a38.9,38.9,0,0,0,4.33-2.939c.286-.223.565-.45.841-.684Zm150.881-7.127a27.8,27.8,0,0,0-4.516-2.585c-.312-.149-.643-.29-1.034-.461l-1.625-.7a61.111,61.111,0,0,1-6.6-3.333q-5.048-2.949-10.367-5.394c-1.57-.725-8.142-3.66-7.874-3.541-7.131-3.206-10.452-2.578-18.412,2.994a16.42,16.42,0,0,0-6.119,8.429,29.47,29.47,0,0,0-1.4,10.322c0,3.095.246,4.817,1.369,7.056,1.555,3.11,4.575,6,9.515,8.73a53.031,53.031,0,0,1,19.651,17.795c3.284,4.761,17.765,16.445,24.237,20.142,7.889,4.5,17.616,8.206,24.271,8.206,3.738,0,5.457-1.778,5.49-4.973.026-2.351-.766-5.107-2.343-9.046-1.1-2.741-.751-4.8.8-8.291,1.187-2.667,1.443-3.4,1.443-4.657s-.7-2.567-2.053-4.118a45.331,45.331,0,0,0-4.426-4.278,40.864,40.864,0,0,1-3.98-4c-3.519-4.226-4.694-7.242-6.658-16.657-1.161-5.6-2.466-7.543-5.624-9.392-.3-.175-1.469-.837-1.748-1q-1.026-.587-2-1.257Zm-.208.305q.985.68,2.023,1.276l1.748.993c3.061,1.793,4.3,3.649,5.449,9.15,1.971,9.467,3.165,12.535,6.733,16.817a41.272,41.272,0,0,0,4.017,4.032,46.676,46.676,0,0,1,4.4,4.248c1.3,1.492,1.96,2.738,1.96,3.876,0,1.183-.253,1.9-1.413,4.508-1.588,3.571-1.949,5.717-.8,8.581,1.555,3.894,2.34,6.614,2.314,8.9-.03,3-1.585,4.6-5.118,4.6-6.573,0-16.247-3.682-24.085-8.157-6.428-3.675-20.867-15.325-24.118-20.03a53.355,53.355,0,0,0-19.777-17.914c-4.88-2.689-7.845-5.531-9.362-8.566-1.086-2.18-1.328-3.85-1.328-6.893a29.294,29.294,0,0,1,1.376-10.2,16.055,16.055,0,0,1,5.985-8.243c7.86-5.505,11.047-6.108,18.04-2.957-.26-.119,6.309,2.812,7.875,3.534.632.3,1.227.577,1.808.856q4.355,2.089,8.529,4.527a61.489,61.489,0,0,0,6.64,3.351l1.625.7c.387.167.714.312,1.027.458A27.734,27.734,0,0,1,190.346,90.166Zm2.827,4.538c-2.864-2.325-4.575-3.039-8.808-4.192a10.244,10.244,0,0,1-4.579-2.128c-1.413-1.227-2.779-1.681-5.9-2.269-1.023-.193-1.365-.26-1.882-.379a11.105,11.105,0,0,1-4.873-2.191c-3.876-3.173-9.448-5.248-13.506-5.248-1.983,0-6.238,2.82-9.574,6.383-3.991,4.263-5.937,8.656-4.735,12.089,1.183,3.385,4.237,6.907,8.566,10.363a58.818,58.818,0,0,0,9.381,6.111,9.2,9.2,0,0,1,3.634,3.716c.257.409,4.129,7.532,5.963,10.352,2.09,3.217,5.728,6.457,11.245,10.4q1.7,1.211,3.422,2.388c.048.033,2.533,1.73,3.2,2.191a46.454,46.454,0,0,1,4.854,3.656c4.33,3.969,13.815,5.78,16.255,3.34.729-.729.818-1.51.725-3.913-.138-3.5.186-5.394,1.841-7.629a12.68,12.68,0,0,1,2.619-2.574,5.528,5.528,0,0,0,2.44-3.53c.361-2.459-1.439-4.858-5.271-8.068-.588-.491-2.481-2.024-2.637-2.15a17.863,17.863,0,0,1-1.945-1.774c-1.525-1.722-2.176-3.552-2.9-7.465q-.152-.812-.3-1.625c-.123-.7-.223-1.228-.327-1.759-.275-1.406-.558-2.671-.893-3.954-.372-1.406-.513-2.046-.878-3.857a7.5,7.5,0,0,0-.58-2.035c-.454-.911-.472-.93-4.557-4.248Zm-.238.29c4.006,3.251,4.047,3.288,4.464,4.121a7.407,7.407,0,0,1,.547,1.942c.365,1.819.506,2.466.882,3.883.335,1.276.614,2.529.889,3.928q.253,1.29.48,2.585l.145.8c.736,3.973,1.4,5.855,2.991,7.64a18.142,18.142,0,0,0,1.986,1.815c.156.126,2.046,1.663,2.63,2.15,3.735,3.125,5.475,5.449,5.144,7.729a5.169,5.169,0,0,1-2.3,3.284,13.024,13.024,0,0,0-2.693,2.648c-1.722,2.321-2.053,4.285-1.916,7.867.093,2.284,0,3.013-.617,3.638-2.269,2.269-11.538.495-15.738-3.355a47.489,47.489,0,0,0-4.9-3.69l-3.2-2.191c-1.35-.923-2.4-1.652-3.418-2.381-5.479-3.921-9.091-7.134-11.148-10.3-1.823-2.8-5.695-9.924-5.959-10.341a9.54,9.54,0,0,0-3.787-3.857,58.42,58.42,0,0,1-9.31-6.07c-4.285-3.415-7.294-6.893-8.451-10.192-1.142-3.266.751-7.54,4.657-11.713,3.273-3.5,7.454-6.264,9.3-6.264,3.969,0,9.459,2.046,13.272,5.167a11.529,11.529,0,0,0,5.022,2.265c.524.119.874.186,1.9.379,3.054.577,4.374,1.015,5.721,2.187a10.535,10.535,0,0,0,4.724,2.2C188.453,92.011,190.123,92.706,192.935,94.994Zm-48.609-1.32c0,2.812.223,4.062.967,5.319.409.684,2.849,3.738,3.2,4.2a13.119,13.119,0,0,0,6.42,5.118,9.068,9.068,0,0,1,1.127.558,7.158,7.158,0,0,0,.744.379c.264.123,1.659.707,2.053.889,2.25,1.034,3.344,2.157,3.344,3.991,0,4.08,7.049,13.435,12.837,16.69a48.731,48.731,0,0,0,12.193,4.412c4.958,1.079,8.366.922,9.158-.863.491-1.1,1.637-1.585,4.456-2.161l.223-.045a12.165,12.165,0,0,0,3.359-.982,2.713,2.713,0,0,0,1.666-2.544,7.636,7.636,0,0,0-1.209-3.6c-.316-.569-.677-1.164-1.2-1.99.06.093-1.053-1.637-1.365-2.143-2.488-3.98-3.664-6.881-3.664-10.125,0-6.848-4.173-12.413-10.229-15.942a7.087,7.087,0,0,0-5.654-.789c-1.875.372-2.25.335-2.764-.565-1.674-2.92-2.619-3.534-5.9-3.534a6.859,6.859,0,0,1-3.894-1.175c-.58-.361-3.225-2.3-4.088-2.857-3.422-2.224-4.218-2.6-9.374-4.445-2.585-.922-5.646.476-8.306,3.392-2.436,2.674-4.1,6.178-4.1,8.8Zm.744,0c0-2.418,1.581-5.758,3.9-8.3,2.481-2.723,5.267-3.995,7.5-3.2,5.107,1.823,5.851,2.176,9.225,4.371.833.543,3.485,2.485,4.1,2.864a7.614,7.614,0,0,0,4.289,1.287c3.005,0,3.712.458,5.256,3.162a2.067,2.067,0,0,0,1.618,1.149,5.612,5.612,0,0,0,1.942-.227,6.389,6.389,0,0,1,5.133.7c5.847,3.411,9.857,8.76,9.857,15.3,0,3.422,1.22,6.431,3.775,10.519l1.369,2.146c.517.815.874,1.4,1.179,1.953a7.022,7.022,0,0,1,1.116,3.236c0,1.559-1.068,2.109-4.426,2.8l-.227.045c-3.076.632-4.352,1.164-4.984,2.585-1.179,2.656-13.391,0-20.309-3.891-5.572-3.136-12.457-12.271-12.457-16.043,0-2.195-1.291-3.526-3.779-4.668-.409-.186-1.8-.774-2.053-.885a6.736,6.736,0,0,1-.67-.346,10.705,10.705,0,0,0-1.209-.6,12.4,12.4,0,0,1-6.126-4.88c-.379-.506-2.779-3.5-3.151-4.133-.666-1.12-.867-2.254-.867-4.947Zm13.83-8.332c-.056-.037-.893-.562-1.1-.684a4.339,4.339,0,0,0-.9-.435c-.956-.309-1.882-.037-4.107,1.161-5.527,2.976-7.227,8.507-3.415,14.4,1.5,2.321,3.485,3.348,6.963,4.133.316.074.446.1,1.164.253a14.451,14.451,0,0,1,4.315,1.358,5.757,5.757,0,0,1,2.79,3.511c2.927,9.273,7.335,16.121,13.495,18.714,6.119,2.578,7.86,3.173,10.408,3.307a13.216,13.216,0,0,0,5.728-1.075,16.53,16.53,0,0,0,2.1-.967,2.925,2.925,0,0,0,1.674-3.463c-.112-.792-1.4-5.777-1.8-7.681-.234-1.134-.443-2.284-.651-3.6q-.267-1.653-.5-3.311a25.569,25.569,0,0,0-1.67-6.937,7.406,7.406,0,0,0-4.359-4.14,19.387,19.387,0,0,0-6.707-1.313,6.331,6.331,0,0,1-3.348-.763,4.966,4.966,0,0,1-.677-.495,11.386,11.386,0,0,1-1.254-1.265c-.219-.257-.885-1.079-.978-1.187A5.1,5.1,0,0,0,171.48,92.8a3.551,3.551,0,0,1-3.043-1.25c.063.067-1.023-1.168-1.432-1.57a11.513,11.513,0,0,0-2.526-1.86,18.075,18.075,0,0,0-1.856-.885,24.147,24.147,0,0,1-3.723-1.9Zm5.4,3.1a11.139,11.139,0,0,1,2.444,1.8q.729.764,1.421,1.562a3.915,3.915,0,0,0,3.314,1.365,4.742,4.742,0,0,1,4.3,1.923c.086.1.755.93.978,1.19a11.755,11.755,0,0,0,1.291,1.306,5.751,5.751,0,0,0,.729.532,6.709,6.709,0,0,0,3.523.815,18.95,18.95,0,0,1,6.591,1.291,7.019,7.019,0,0,1,4.155,3.943,25.519,25.519,0,0,1,1.64,6.84l.242,1.614.26,1.7c.212,1.324.417,2.481.655,3.619.4,1.927,1.689,6.893,1.8,7.659a2.562,2.562,0,0,1-1.492,3.087,16.889,16.889,0,0,1-2.053.949,12.816,12.816,0,0,1-5.568,1.042c-2.488-.126-4.211-.718-10.285-3.273-6.03-2.541-10.385-9.3-13.283-18.487A6.127,6.127,0,0,0,162,105.2a14.736,14.736,0,0,0-4.415-1.4c-.714-.149-.848-.182-1.161-.253-3.392-.766-5.3-1.748-6.733-3.969-3.69-5.706-2.064-10.992,3.281-13.871,2.139-1.153,2.987-1.4,3.813-1.135a3.828,3.828,0,0,1,.829.4c.2.119,1.03.64,1.09.677a24.515,24.515,0,0,0,3.779,1.923,18.535,18.535,0,0,1,1.819.867Zm15.768,12.171c-6.007-1.068-9.805-.361-12.078,2.291-1.89,2.206-.42,7.968,2.206,13.223,1.782,3.563,3.943,6.03,8.615,9.37,5.263,3.757,13.2,4.538,15.143,1.432.692-1.1.781-3.028.394-5.851-.29-2.113-.692-3.984-1.759-8.548l-.045-.19c-.591-2.529-.882-3.835-1.168-5.26-.539-2.7-1.391-4.266-2.7-5.111-1.045-.67-2.057-.848-4.586-.975a28.928,28.928,0,0,1-4.021-.383Zm-.067.365a28.431,28.431,0,0,0,4.069.391c2.462.123,3.433.29,4.4.915,1.209.781,2.016,2.265,2.537,4.873.286,1.428.58,2.734,1.172,5.271l.045.186c1.064,4.553,1.462,6.42,1.748,8.518.383,2.738.294,4.6-.335,5.606-1.793,2.864-9.5,2.109-14.615-1.544-4.624-3.3-6.744-5.725-8.5-9.228-2.552-5.1-4-10.787-2.258-12.814C170.446,100.618,174.114,99.934,180,100.979Zm-5.918,1.864c-2.648,0-3.965,1.146-4.185,3.236-.156,1.5.16,3.028,1.03,5.929.952,3.169,6.829,9.44,10.117,11.635,2.607,1.737,7.447,2.109,9.883.368,1.484-1.06,1.313-4.493-.007-9.842-.253-1.023-.547-2.1-.882-3.258q-.543-1.893-1.135-3.772l-.138-.446a5.15,5.15,0,0,0-3.991-3.448,22.928,22.928,0,0,0-6.5-.495l-1.447.037C175.389,102.827,174.813,102.842,174.084,102.842Zm0,.372c.733,0,1.313-.015,2.756-.056l1.443-.037a22.579,22.579,0,0,1,6.4.484,4.777,4.777,0,0,1,3.731,3.2q.3.97.6,1.938c.253.818.472,1.551.677,2.269.335,1.153.625,2.228.878,3.247,1.276,5.163,1.44,8.529.149,9.448-2.3,1.644-6.967,1.283-9.455-.372-3.221-2.15-9.05-8.366-9.969-11.431-.856-2.853-1.168-4.356-1.015-5.788C170.468,104.219,171.625,103.214,174.084,103.214Zm6.617,2.6a11.643,11.643,0,0,0-3.188.521c-2.016.662-3.244,1.871-3.244,3.757,0,3.567,3.537,6.4,8.31,7.986,3.653,1.22,5.066-.666,4.337-6.152a6.658,6.658,0,0,0-3.065-5.007,7.58,7.58,0,0,0-3.151-1.1Zm.223.4a7.212,7.212,0,0,1,2.73,1.015,6.281,6.281,0,0,1,2.89,4.746c.7,5.248-.506,6.863-3.846,5.751-4.635-1.547-8.057-4.289-8.057-7.636,0-1.7,1.108-2.79,2.987-3.4a10.434,10.434,0,0,1,3.05-.5A1.872,1.872,0,0,1,180.924,106.22ZM150.843,97.5c1.012,3.645,5.553,3.668,9.939,1.227,3.783-2.1,5.133-6.688,1.86-8.507q-.853-.469-1.666-1l-.755-.484q-.709-.461-1.458-.856a5.7,5.7,0,0,0-5.208-.268c-3.407,1.361-4.084,4.958-2.715,9.894Zm7.748-9.292q.733.386,1.428.837l.755.484c.312.2.558.353.8.5.305.186.6.357.885.517,2.953,1.637,1.707,5.877-1.86,7.856-4.207,2.34-8.481,2.317-9.4-1-1.328-4.772-.688-8.172,2.492-9.448a5.33,5.33,0,0,1,4.9.26Zm-6.64,4.519c0,2.12.908,3.348,2.47,3.7a6.535,6.535,0,0,0,4.121-.673l.7-.35c.249-.126.439-.231.606-.327,1.514-.885,1.536-1.849-.126-4.066-2.529-3.37-7.774-2.663-7.774,1.711Zm.372,0a3.1,3.1,0,0,1,2.723-3.407,4.862,4.862,0,0,1,4.382,1.919c1.544,2.061,1.525,2.767.238,3.523-.164.093-.346.19-.591.316l-.7.346a6.185,6.185,0,0,1-3.876.647c-1.387-.32-2.18-1.391-2.18-3.348ZM79.233,197.247c0-4.761-.908-6.227-6.874-11.073a21.131,21.131,0,0,0-2.831-1.934,29.491,29.491,0,0,0-3.162-1.555c-.461-.2-.922-.391-1.525-.632l-1.458-.584c-3.5-1.425-5.111-2.492-6.182-4.482a28.039,28.039,0,0,1-1.2-2.541q-.3-.71-.573-1.428l-.112-.275-.208-.536c-1.19-2.983-2.25-4.493-4.724-6.137a13.117,13.117,0,0,1-1.845-1.488,17.248,17.248,0,0,1-1.443-1.6c-.1-.126-.949-1.19-1.19-1.48a5.031,5.031,0,0,0-4.281-2.195,9.539,9.539,0,0,1-3.56-.781c-2.016-.751-2.429-.87-3.333-.818a4.007,4.007,0,0,0-2.671,1.335c-.484.484-2.064,2.169-2.425,2.522a8.1,8.1,0,0,1-6.61,2.574q-2.249.015-4.493.167c-5.925.324-8.161.212-9.4-.822-2.57-2.146-4.33-1.015-4.33,2.886a7.36,7.36,0,0,0,7.067,7.439c1.785,0,3.095.532,3.474,1.365.417.922-.253,2.288-2.224,3.932-5.059,4.214-4.181,7.722,2.842,7.722a8.15,8.15,0,0,1,5.431,1.949,19.4,19.4,0,0,1,3.664,4.4l.565.837a22.4,22.4,0,0,0,2.723,3.5c2.31,2.31,3.459,2.842,4.854,2.563l.372-.086a4.024,4.024,0,0,1,.989-.138c.6,0,.9.249,3.043,2.314,1.8,1.737,3,2.522,4.4,2.522a5.064,5.064,0,0,1,2.4,1.283c.472.365,1,.8,1.674,1.376l1.83,1.6q.833.724,1.689,1.421c3.47,2.812,5.814,3.794,7.517,2.425a4.344,4.344,0,0,0,1.722-2.7,7.581,7.581,0,0,0-.108-2.715c-.324-2.176-.242-3.132.681-4.315.863-1.108,1.1-1.2,1.4-.889.093.1.5.606.6.722a3.24,3.24,0,0,0,3.348,1.049c1.711-.312,2.072-1.529,1.756-3.753l-.089-.58c-.223-1.361-.253-1.834-.093-2.157s.707-.35,1.945.149l.275.108c5.126,2.061,5.676,2.265,7.227,2.481,2.243.312,3.463-.6,3.463-2.939Zm-.744,0c0,1.86-.8,2.455-2.619,2.2-1.454-.2-2.02-.409-7.049-2.436l-.279-.112c-1.551-.617-2.492-.573-2.886.216-.264.532-.231,1.027.022,2.6l.089.569c.268,1.875.022,2.7-1.149,2.916a2.506,2.506,0,0,1-2.66-.811c-.074-.086-.5-.617-.625-.744-.707-.729-1.421-.465-2.522.949-1.079,1.391-1.179,2.518-.826,4.88.372,2.511.193,3.5-1.347,4.728-1.3,1.041-3.385.167-6.584-2.421-.5-.409-1.023-.848-1.67-1.406l-1.834-1.6c-.684-.588-1.216-1.027-1.7-1.4a5.411,5.411,0,0,0-2.853-1.436c-1.131,0-2.213-.707-3.88-2.314l-.915-.889c-.35-.331-.621-.58-.882-.792a2.913,2.913,0,0,0-1.763-.841,4.8,4.8,0,0,0-1.153.156c-.26.059-.264.063-.357.078-1.1.223-2.027-.2-4.177-2.355a22.1,22.1,0,0,1-2.637-3.389l-.565-.837a20.105,20.105,0,0,0-3.8-4.553,8.89,8.89,0,0,0-5.907-2.12c-6.275,0-6.926-2.607-2.366-6.409,2.195-1.83,3.02-3.5,2.425-4.809-.528-1.161-2.109-1.8-4.151-1.8a6.62,6.62,0,0,1-6.323-6.7c0-3.325,1.071-4.014,3.11-2.317,1.466,1.22,3.712,1.335,9.92,1l.379-.022c1.893-.1,2.972-.145,4.073-.145a8.831,8.831,0,0,0,7.134-2.79c.372-.365,1.957-2.057,2.429-2.526a3.275,3.275,0,0,1,2.183-1.116c.755-.045,1.138.067,3.032.77a10.172,10.172,0,0,0,3.82.826,4.324,4.324,0,0,1,3.712,1.934c.234.275,1.075,1.339,1.183,1.469a17.96,17.96,0,0,0,1.5,1.659,13.86,13.86,0,0,0,1.949,1.573c2.328,1.551,3.311,2.942,4.445,5.8l.212.532.1.275q.287.723.58,1.443.552,1.332,1.235,2.6c1.175,2.187,2.909,3.337,6.558,4.821l1.458.588c.6.238,1.056.428,1.506.621a29.461,29.461,0,0,1,3.087,1.518,20.385,20.385,0,0,1,2.734,1.867c5.81,4.724,6.6,6,6.6,10.5ZM28.935,167.579a7.381,7.381,0,0,1-3.973.632,22.472,22.472,0,0,1-3.273-.554,20.055,20.055,0,0,0-3.1-.573,3.1,3.1,0,0,0-2.34.521,1.225,1.225,0,0,0-.469,1.57c.246.513.391.647,1.878,1.886,1.313,1.09,1.871,1.8,1.871,2.637,0,2.715-.48,3.727-2.913,5.81-1.436,1.228-2.206,2.544-1.964,3.578.279,1.209,1.845,1.867,4.69,1.867,2.671,0,4.724,1.715,7.451,5.46.186.26,1.473,2.072,1.838,2.555a14.464,14.464,0,0,0,1.756,2.046,4.345,4.345,0,0,0,1.153.8,8.722,8.722,0,0,0,3.656.647c2.849.1,4.043.539,5.572,2.641a18.443,18.443,0,0,0,1.741,2.083,15.946,15.946,0,0,0,3.218,2.488c.056.03,3.976,2.3,5.505,3.284,1.4.9,2.4.759,3.058-.286a10.356,10.356,0,0,0,1.068-3.85,14.4,14.4,0,0,1,.766-3.322c.361-.856.822-1.205,1.5-1.071,2.306.461,3.329.517,4.084.074.882-.521,1.164-1.718.975-3.991-.06-.729.387-1.068,1.4-1.131a16.249,16.249,0,0,1,3.7.417l.257.045c2.965.539,3.987.64,4.731.272,1.082-.532.6-1.96-1.573-4.542a19.94,19.94,0,0,0-5.862-5.033,15.722,15.722,0,0,0-4.523-1.525c-2.712-.64-3.868-1.306-5.222-3.463-1.1-1.767-3.995-6.926-4.516-7.752a10.95,10.95,0,0,0-4.11-4.218,27.041,27.041,0,0,1-3.411-2.258l-.513-.376c-2.92-2.128-4.575-2.968-6.576-2.968a3.766,3.766,0,0,0-3.4,1.774c-.126.16-.621.826-.744.993a11.052,11.052,0,0,1-.911,1.053,9.034,9.034,0,0,1-2.47,1.778Zm.164.335a9.509,9.509,0,0,0,2.574-1.849,12.247,12.247,0,0,0,.934-1.09c.13-.171.625-.837.748-.993a3.411,3.411,0,0,1,3.1-1.629c1.893,0,3.5.818,6.357,2.894l.513.376a26.549,26.549,0,0,0,3.459,2.288A10.6,10.6,0,0,1,50.751,172c.517.815,3.407,5.97,4.519,7.744,1.41,2.258,2.652,2.968,5.453,3.627a15.668,15.668,0,0,1,4.434,1.5,19.637,19.637,0,0,1,5.751,4.947c2.02,2.4,2.429,3.6,1.692,3.965-.632.312-1.666.212-4.5-.3l-.26-.048a16.161,16.161,0,0,0-3.783-.417c-1.194.074-1.83.55-1.748,1.529.179,2.143-.074,3.214-.792,3.638-.643.379-1.614.327-3.82-.115-.874-.175-1.488.29-1.912,1.291a14.13,14.13,0,0,0-.77,3.273l-.022.134a10.27,10.27,0,0,1-1.012,3.712c-.543.856-1.309.967-2.544.171-1.54-.989-5.464-3.262-5.509-3.292a15.586,15.586,0,0,1-3.147-2.433,17.812,17.812,0,0,1-1.711-2.038c-1.607-2.213-2.905-2.689-5.855-2.79a8.384,8.384,0,0,1-3.519-.621,4.1,4.1,0,0,1-1.056-.729,14.15,14.15,0,0,1-1.711-1.994c-.357-.484-1.637-2.291-1.834-2.555-2.79-3.835-4.917-5.613-7.748-5.613-2.693,0-4.1-.6-4.33-1.577-.2-.863.506-2.064,1.849-3.214,2.511-2.154,3.039-3.27,3.039-6.093,0-.993-.61-1.763-2-2.924-1.413-1.179-1.573-1.324-1.778-1.759-.186-.394-.093-.74.368-1.127.829-.688,1.756-.614,5.118.134a22.912,22.912,0,0,0,3.325.558,7.709,7.709,0,0,0,4.166-.67Zm10.415-1.451c-2.1-1.049-3.333-.818-4.8.51-.208.186-.967.919-1.123,1.068a7.036,7.036,0,0,1-5.319,2.124c-4.229,0-5.208.524-5.989,3.009-.1.309-.5,1.711-.617,2.09-.3.978-.61,1.871-1,2.827-.792,1.923-.982,3.095-.64,3.809.286.6.781.811,2,1.038a10.928,10.928,0,0,1,1.432.316,4,4,0,0,1,1.711.989c.372.372.751.792,1.231,1.361.223.264,1.082,1.3,1.287,1.54,2.678,3.177,4.624,4.594,7.287,4.594a6.3,6.3,0,0,1,3.939,1.488c.684.51,4.322,3.835,5.661,4.858a27.189,27.189,0,0,0,3.329,2.187c1.7.945,2.734,1.2,3.34.829.491-.3.614-.77.722-2.046q.024-.337.06-.673c.2-1.759.833-2.552,2.663-2.552,2.645,0,3.292-.458,3.619-2.012a4.7,4.7,0,0,1,2.436-3.6c1.477-.986,1.6-2.016.565-3.058-.744-.744-1.722-1.3-4.222-2.555a15.961,15.961,0,0,1-4.129-2.485,14.541,14.541,0,0,1-1.971-2.41A18.768,18.768,0,0,1,49.91,177.8l-.789-1.6c-.339-.681-.64-1.254-.971-1.852-2.135-3.839-3.857-5.5-8.637-7.886Zm8.31,8.072c.331.591.629,1.161.967,1.838l.785,1.6a19.685,19.685,0,0,0,1.094,1.945,14.91,14.91,0,0,0,2.024,2.466c.744.744,1.718,1.306,4.222,2.555a15.9,15.9,0,0,1,4.129,2.488c.867.87.774,1.626-.513,2.481a5.057,5.057,0,0,0-2.593,3.831c-.29,1.376-.777,1.719-3.255,1.719-2.046,0-2.816.956-3.032,2.883-.022.186-.033.305-.063.684-.093,1.138-.2,1.551-.543,1.756-.446.275-1.373.048-2.968-.837a26.812,26.812,0,0,1-3.281-2.157c-1.32-1-4.962-4.333-5.669-4.862a6.664,6.664,0,0,0-4.159-1.559c-2.518,0-4.389-1.365-7-4.464l-1.283-1.536q-.6-.718-1.254-1.384a4.359,4.359,0,0,0-1.864-1.082,10.785,10.785,0,0,0-1.477-.331c-1.1-.2-1.514-.379-1.73-.829-.283-.591-.1-1.674.647-3.508q.578-1.4,1.019-2.86c.115-.383.521-1.785.617-2.087.725-2.306,1.547-2.749,5.632-2.749a7.4,7.4,0,0,0,5.572-2.224c.164-.149.915-.882,1.12-1.064,1.358-1.227,2.425-1.432,4.385-.45C44.063,169.153,45.73,170.76,47.824,174.535Zm-20.778,4.438c1.108,2.4,6.242,5.676,9.946,5.676,1.983,0,2.812-1.108,2.645-2.924a9.525,9.525,0,0,0-1.462-3.947l-.565-.863q-.331-.515-.7-1a6.082,6.082,0,0,0-5.066-2.771c-3.37,0-5.858,3.541-4.8,5.832Zm.335-.156c-.937-2.035,1.358-5.3,4.464-5.3a5.724,5.724,0,0,1,4.769,2.626c.223.3.435.6.688.982,0,0,.446.7.565.867a9.228,9.228,0,0,1,1.4,3.772c.149,1.611-.532,2.518-2.276,2.518-3.56,0-8.563-3.191-9.608-5.46ZM53.3,186.531a4.932,4.932,0,0,0-2.187.67c-.789.547-.818,1.339.1,2.25,1.912,1.916,4.78,1.614,4.78-.5A2.266,2.266,0,0,0,53.3,186.531Zm.033.372a1.9,1.9,0,0,1,2.284,2.046c0,1.7-2.429,1.957-4.147.242-.755-.759-.736-1.276-.149-1.681a4.546,4.546,0,0,1,2.009-.606ZM42.322,102.857c-1.726.874-6.424,3.065-7.212,3.508a8.979,8.979,0,0,0-2.622,2.1,16.755,16.755,0,0,0-1.395,1.934c-.893,1.406-.015,2.849,2.306,4.326a43.184,43.184,0,0,0,8.165,3.653c1.8.647,7.3,2.485,7.848,2.678,2.451.867,5.524.037,9.351-2.18,1.462-.844,2.976-1.86,4.813-3.177.829-.6,3.534-2.6,3.98-2.92a30.207,30.207,0,0,1,3.21-2.12c1.793-.967,1.655-2.47-.063-4.512-1.216-1.443-1.551-1.737-6.733-6.074q-1.69-1.4-3.307-2.879-.908-.836-1.756-1.733c-1.89-2.02-3.645-2.414-5.568-1.458a12.146,12.146,0,0,0-2.764,2.053c-.551.51-2.581,2.5-2.968,2.864a22.406,22.406,0,0,1-5.282,3.943Zm.171.335a22.637,22.637,0,0,0,5.371-4c.391-.372,2.418-2.358,2.965-2.86a12.045,12.045,0,0,1,2.678-2c1.767-.878,3.348-.521,5.133,1.38q.855.907,1.771,1.752c.922.856,1.919,1.718,3.318,2.89,5.155,4.315,5.494,4.612,6.688,6.03,1.592,1.89,1.7,3.125.171,3.947a30.754,30.754,0,0,0-3.251,2.146c-.446.324-3.151,2.321-3.98,2.92q-2.31,1.7-4.78,3.158c-3.742,2.165-6.721,2.968-9.039,2.15-.551-.193-6.052-2.035-7.848-2.678a43.021,43.021,0,0,1-8.09-3.616c-2.172-1.38-2.939-2.641-2.195-3.816a16.408,16.408,0,0,1,1.365-1.89,8.615,8.615,0,0,1,2.522-2.016c.774-.431,5.46-2.622,7.2-3.5Zm14.443,2.994a7.243,7.243,0,0,0-3.125.26,19.552,19.552,0,0,0-3.214,1.4,45.153,45.153,0,0,1-4.906,2.068q-4.676,1.657-3.284,3.63c.774,1.094,2.991,2.2,6.636,3.415,3.143,1.049,5.758.874,7.971-.335a13.024,13.024,0,0,0,4.519-4.575c1.079-1.64,1.015-3.05-.06-4.114a7.875,7.875,0,0,0-4.538-1.748Zm-.045.372a7.55,7.55,0,0,1,4.322,1.644c.941.93,1,2.146.007,3.645a12.593,12.593,0,0,1-4.389,4.452c-2.12,1.157-4.624,1.328-7.67.312-3.567-1.19-5.743-2.276-6.45-3.281-.722-1.023.186-2.027,3.106-3.065a46.21,46.21,0,0,0,4.94-2.083,19.365,19.365,0,0,1,3.162-1.38,6.851,6.851,0,0,1,2.976-.246Zm90.968,79.56c0,1.778.539,2.812,1.648,3.322.852.391,1.692.458,4.014.446l.662,0c3.418,0,6.323-2.846,6.323-5.765,0-2.823-3.943-3.909-7.343-2.023a8.448,8.448,0,0,1-3.188,1.023C148.325,183.425,147.86,183.961,147.86,186.118Zm.372,0c0-1.971.335-2.358,1.815-2.634a8.82,8.82,0,0,0,3.3-1.064c3.188-1.771,6.792-.781,6.792,1.7,0,2.715-2.738,5.394-5.951,5.394h-.666c-2.254.015-3.072-.052-3.854-.409C148.7,188.655,148.232,187.762,148.232,186.118Zm-12.4-43.836c-1.38-.487-3.236-1-5.989-1.692-.96-.242-6.149-1.5-7.648-1.878-7.287-1.834-11.736-3.311-14.22-4.966-5.553-3.7-13.714-12.6-16.3-17.78-.837-1.674-1.73-2.373-2.857-2.325a4.568,4.568,0,0,0-1.607.446q-.67.291-1.317.632l-.469.234a10.14,10.14,0,0,1-4.705,1.28c-2.678,0-3.723,1.142-3.106,2.942a9.872,9.872,0,0,0,4.129,4.471c3.087,1.852,4.371,6.435,4.371,12.487a3.745,3.745,0,0,0,1.48,3.11,10.536,10.536,0,0,0,3.151,1.547l.379.138a8.221,8.221,0,0,1,3.229,1.659,10.486,10.486,0,0,0,7.57,2.66c.513,0,.919.342,1.484,1.153.108.153.491.725.547.811,1,1.458,1.834,2.128,3.177,2.128,2.916,0,3.995.346,8.094,2.581a10.3,10.3,0,0,0,5.453,1.369c.1,0,.175,0,.342.007a12.053,12.053,0,0,1,3.909.5,27.314,27.314,0,0,1,3.307,1.324c.807.372,3.917,1.864,3.805,1.811a44.788,44.788,0,0,0,7.03,2.816c4.616,1.32,6.911.833,10.2-1.514.96-.688,1.012-1.648.309-2.834a16.4,16.4,0,0,0-3.005-3.337l-.662-.61c-1.458-1.339-1.666-1.529-2.195-2.057a10.613,10.613,0,0,1-2.038-2.838,6.762,6.762,0,0,0-2.332-2.626,15.785,15.785,0,0,0-3.511-1.648Zm-.126.35a15.3,15.3,0,0,1,3.43,1.607,6.413,6.413,0,0,1,2.217,2.5,10.846,10.846,0,0,0,2.1,2.912c.532.536.744.729,2.209,2.072l.658.606a16.274,16.274,0,0,1,2.939,3.255c.614,1.038.573,1.785-.2,2.343-3.2,2.284-5.379,2.745-9.883,1.458A44.847,44.847,0,0,1,132.2,156.6c.112.052-3-1.443-3.809-1.815a27.639,27.639,0,0,0-3.351-1.339,12.333,12.333,0,0,0-4.017-.521h-.338a9.924,9.924,0,0,1-5.282-1.328c-4.151-2.262-5.282-2.626-8.273-2.626-1.187,0-1.934-.6-2.868-1.964l-.551-.818c-.632-.9-1.116-1.309-1.789-1.309a10.189,10.189,0,0,1-7.309-2.548,8.344,8.344,0,0,0-3.363-1.748l-.379-.138c-3.2-1.164-4.385-2.109-4.385-4.307,0-6.175-1.313-10.861-4.553-12.807a9.5,9.5,0,0,1-3.965-4.27c-.528-1.536.309-2.451,2.753-2.451a10.485,10.485,0,0,0,4.869-1.317c2.8-1.365,2.522-1.242,3.244-1.276.96-.037,1.73.565,2.507,2.12,2.619,5.234,10.824,14.187,16.43,17.925,2.533,1.689,7.008,3.169,14.339,5.014,1.5.379,6.688,1.637,7.648,1.878,2.741.684,4.586,1.2,5.951,1.681Zm-6.26,1.5a17.2,17.2,0,0,1-2.7-.257,8.423,8.423,0,0,0-3.147-.186c-.937.208-1.41.874-1.41,2.116,0,1.506.844,2.712,2.462,3.761a26.012,26.012,0,0,0,5.263,2.381l.1.037.848.32a14.312,14.312,0,0,1,3.47,2.02l.3.212c3.046,2.187,4.966,2.987,8.574,2.987,1.852,0,2.559-.755,2.139-2.09a12.888,12.888,0,0,0-2.9-4.14q-.7-.764-1.544-1.6c-1.179-1.168-4.185-3.947-4.259-4.017a5.435,5.435,0,0,0-.521-.469c-1.257-1.008-2.146-1.146-5.274-1.09-.614.011-.978.015-1.4.015Zm0,.372c.428,0,.792,0,1.41-.015,3.043-.052,3.868.074,5.036,1.008a5.8,5.8,0,0,1,.491.439c.074.078,3.087,2.86,4.259,4.025q.784.775,1.532,1.585a12.736,12.736,0,0,1,2.82,4c.335,1.071-.167,1.607-1.785,1.607-3.519,0-5.371-.77-8.354-2.916l-.3-.212A14.682,14.682,0,0,0,131,151.953l-.856-.32-.093-.037a25.83,25.83,0,0,1-5.2-2.343c-1.518-.986-2.291-2.083-2.291-3.448,0-1.075.361-1.585,1.116-1.748a8.147,8.147,0,0,1,3.013.186,17.4,17.4,0,0,0,2.753.26ZM87.613,127.638a7.168,7.168,0,0,1,.365,4.746c-.439,2.626.513,6.167,2.042,6.167q.281,0,.562.026l.238.015a11.07,11.07,0,0,0,2.581-.063c2.436-.394,3.872-1.912,3.872-5,0-5.17-.8-7.324-3.024-9.794a8.146,8.146,0,0,1-.937-1.395c-.219-.383-1.034-1.908-1.012-1.864-1.652-3.028-2.868-4.289-4.557-3.868a4.876,4.876,0,0,0-1.332.591l-.517.312a7.44,7.44,0,0,1-1.153.6,5.476,5.476,0,0,1-1.767.1l-.268,0a4.681,4.681,0,0,0-2.169.245c-.6.331-.446.952.424,1.823q.709.708,1.436,1.4C86.341,125.424,87.141,126.28,87.613,127.638Zm.35-.119c-.5-1.451-1.287-2.3-5.308-6.123-.577-.547-1.015-.975-1.432-1.387-.722-.725-.807-1.071-.5-1.239a4.638,4.638,0,0,1,1.979-.2l.268,0a5.23,5.23,0,0,0,1.912-.126,7.512,7.512,0,0,0,1.209-.621l.513-.309a4.5,4.5,0,0,1,1.231-.547c1.443-.361,2.574.807,4.14,3.682-.026-.048.8,1.48,1.015,1.867a8.448,8.448,0,0,0,.986,1.458c2.161,2.407,2.927,4.464,2.927,9.548,0,2.9-1.294,4.266-3.56,4.631a10.529,10.529,0,0,1-2.5.06l-.458-.026c-.156-.011-.272-.015-.368-.015-1.19,0-2.083-3.311-1.674-5.736a7.509,7.509,0,0,0-.383-4.925Zm3.444,4.62c-.216.193-.93.707-.949.718-.729.584-.759,1.231,0,2.366,1.391,2.1,3.284,1.149,3.284-1.692,0-1.417-.19-2.109-.77-2.239-.439-.1-.744.112-1.562.848Zm.5.551c.558-.5.829-.688.9-.67s.186.458.186,1.51c0,2.183-.993,2.682-1.923,1.283-.558-.841-.547-1.056-.149-1.376-.011.011.725-.521.982-.744ZM8.994,84.263a13.3,13.3,0,0,0-2.187-.878l-.1-.033a18.2,18.2,0,0,1-3.27-1.32c-1.551-.774-2.362-.7-2.589.312-.164.744-.074,1.492.465,4.724a22.241,22.241,0,0,0,7.875,13.5c1.6,1.35,2.756,1.633,3.627.908.7-.584,1.153-1.7,1.715-3.9.112-.428.532-2.169.64-2.589q.432-1.735,1.008-3.43c.893-2.537,1.127-4.01.781-4.813-.286-.681-.774-.833-2.083-.911a10.079,10.079,0,0,1-1.1-.1l-.725-.123c-.268-.045-.454-.074-.625-.108-.409-.074-.714-.141-1.008-.223A13.959,13.959,0,0,1,8.994,84.263Zm-.164.335A14.243,14.243,0,0,0,11.3,85.635c.312.086.629.156,1.045.234q.706.13,1.417.234a9.153,9.153,0,0,0,1.086.1c1.164.067,1.551.19,1.763.688.29.684.074,2.09-.792,4.538Q15.241,93.143,14.8,94.9l-.64,2.589c-.543,2.12-.975,3.191-1.592,3.7-.7.58-1.67.346-3.151-.908A21.863,21.863,0,0,1,1.674,87c-.521-3.143-.614-3.909-.465-4.579.153-.7.692-.744,2.061-.06A18.548,18.548,0,0,0,6.591,83.7l.1.037a13.167,13.167,0,0,1,2.135.856ZM10.5,87.045a6.721,6.721,0,0,1-1.451-.528c-.13-.067-.956-.487-1.235-.621a15.417,15.417,0,0,0-1.748-.7c-1-.335-1.726-.286-2.187.149A2.112,2.112,0,0,0,3.359,86.9c-.007.149-.007.26-.007.51,0,2.094,1.722,6.279,4.218,8.462,1.614,1.413,2.719,1.737,3.69.937.766-.632,1.3-1.73,2.481-4.8.692-1.8.763-3.013.253-3.794a2.669,2.669,0,0,0-2.169-1l-.469-.045a7.491,7.491,0,0,1-.856-.115Zm.781.856.454.045c.893.1,1.376.283,1.633.673.346.532.29,1.525-.324,3.117-1.123,2.916-1.64,3.984-2.262,4.5s-1.354.279-2.727-.922a13.2,13.2,0,0,1-3.965-7.9c0-.238,0-.346.007-.48A1.513,1.513,0,0,1,4.4,85.884c.223-.212.67-.242,1.44.015a14.117,14.117,0,0,1,1.663.67c.268.126,1.09.547,1.235.617a7.267,7.267,0,0,0,1.6.58,6.382,6.382,0,0,0,.952.134ZM95.993,54.8a12.672,12.672,0,0,0,2.656,4.24l.967,1.1q.508.585.978,1.2a17.259,17.259,0,0,1,1.741,2.79,13.1,13.1,0,0,0,4.78,5.167,31.088,31.088,0,0,0,5.829,2.823c4.1,1.637,6.111.469,10.125-6.1,1.064-1.745,3.273-3.21,6.688-4.709,1.116-.495,4.791-1.949,5.367-2.2,1.845-.811,2.619-1.384,2.388-2.176-.249-.863-1.971-1.506-5.758-2.262A51.839,51.839,0,0,0,116.9,53.557c-2.939.182-3.6.186-4.739-.1a7.432,7.432,0,0,1-2.232-.967l-1.038-.636a50.4,50.4,0,0,0-6.435-3.682c-2.243-1.008-3.932-1.235-5.185-.521-2.678,1.532-2.857,2.864-1.28,7.149Zm.7-.26c-1.469-3.98-1.339-4.932.952-6.242.989-.565,2.462-.368,4.508.551a51.288,51.288,0,0,1,6.349,3.634l1.038.643a8.406,8.406,0,0,0,2.444,1.056c1.25.3,1.942.3,4.962.112a51.159,51.159,0,0,1,14.659,1.116,27.939,27.939,0,0,1,4.014,1.023c.755.283,1.131.539,1.179.71.06.212-.551.666-1.971,1.287-.558.249-4.237,1.7-5.371,2.206-3.541,1.559-5.855,3.087-7.019,5-3.85,6.3-5.531,7.276-9.217,5.8a30.782,30.782,0,0,1-5.7-2.76A12.412,12.412,0,0,1,103,63.808,17.758,17.758,0,0,0,101.19,60.9q-.486-.635-1.012-1.239l-.967-1.1a11.944,11.944,0,0,1-2.518-4.014Zm2.47-.145c2.953,4.761,6.893,8.09,12.386,9.385,2.909.681,4.638-.294,4.88-2.206.2-1.655-.852-3.37-2.232-3.37-1.123,0-2.083-.625-5.721-3.407-.547-.417-.956-.729-1.361-1.019a14.126,14.126,0,0,0-4.025-2.262c-2.072-.621-3.47-.8-4.222-.454-.93.424-.826,1.536.294,3.333Zm.312-.193c-1.012-1.637-1.094-2.507-.45-2.8s1.979-.123,3.961.472a13.921,13.921,0,0,1,3.909,2.2c.4.294.811.6,1.358,1.019,3.749,2.872,4.694,3.482,5.944,3.482,1.123,0,2.046,1.5,1.86,2.953-.208,1.674-1.718,2.522-4.423,1.886C106.248,62.153,102.387,58.887,99.475,54.2ZM51.644,12.466c-5.163,1.845-7.718,1.845-11.762,0a24.656,24.656,0,0,1-4.092-2.537,24.96,24.96,0,0,0-4.144-2.574,5.664,5.664,0,0,0-4.173-.476c-1.458.469-2.306,4.575-2.522,10.582-.186,5.282.193,10.761.915,12.721a6.3,6.3,0,0,0,4.281,3.727,15.511,15.511,0,0,0,4.821.677c2.154,0,3.348.893,4.538,2.842.138.219.577.967.636,1.068.651,1.079,1.134,1.611,1.834,1.841a11.656,11.656,0,0,1,1.44.647l.9.458c.383.2.7.35,1,.5A14.529,14.529,0,0,0,51.707,43.7a7.128,7.128,0,0,1,5.215,2.2c.431.413,1.562,1.685,1.722,1.838a11.475,11.475,0,0,0,4.036,2.269c.521.193,2.224.792,2.325.826l.766.29a5.454,5.454,0,0,0,1,.3c2.064.424,4.144-.2,6.688-1.644.472-.272,1.908-1.138,2.143-1.272a7.536,7.536,0,0,1,3.381-.707l.643-.056a7.065,7.065,0,0,0,3.8-1.1c1.86-1.343,2.518-2.886,2.1-4.586-.495-2.016-2.418-4.1-5.524-6.428q-1.189-.886-2.418-1.715c.123.086-1.611-1.086-1.971-1.339-1.015-.71-1.785-1.451-4.743-4.478l-.405-.409c-1.3-1.324-2.191-2.191-3.02-2.912-1.079-.93-1.756-2.213-2.79-4.854l-.234-.6c-1-2.574-1.592-3.72-2.555-4.586-.528-.476-2.485-2.433-2.95-2.79-1.48-1.116-2.979-1.015-7.279.521Zm.126.35c4.188-1.5,5.579-1.592,6.926-.569.443.335,2.381,2.273,2.931,2.764.9.811,1.473,1.931,2.455,4.445l.234.6c1.053,2.7,1.756,4.017,2.89,5q1.777,1.572,3.407,3.3c2.983,3.05,3.749,3.794,4.791,4.523.368.257,2.1,1.428,1.975,1.339.93.636,1.681,1.164,2.407,1.707,3.039,2.28,4.921,4.315,5.386,6.219.379,1.544-.216,2.939-1.957,4.192A6.791,6.791,0,0,1,79.6,47.378l-.644.048a7.785,7.785,0,0,0-3.534.763c-.242.134-1.674,1-2.143,1.265C70.8,50.86,68.8,51.463,66.85,51.061a5.213,5.213,0,0,1-.937-.279q-.388-.155-.781-.3c-.1-.037-1.808-.632-2.321-.826A11.081,11.081,0,0,1,58.9,47.471c-.149-.141-1.28-1.413-1.722-1.838a7.5,7.5,0,0,0-5.475-2.306,14.254,14.254,0,0,1-6.223-1.718c-.305-.149-.614-.3-1-.495-.045-.022-.718-.368-.9-.458a11.986,11.986,0,0,0-1.488-.67c-.6-.193-1.027-.677-1.633-1.681l-.632-1.071c-1.261-2.046-2.555-3.017-4.862-3.017a15.132,15.132,0,0,1-4.7-.658,5.927,5.927,0,0,1-4.054-3.5c-.7-1.9-1.079-7.346-.889-12.584.208-5.777,1.045-9.85,2.262-10.237a5.3,5.3,0,0,1,3.906.458,24.485,24.485,0,0,1,4.092,2.541,25.222,25.222,0,0,0,4.144,2.574c4.14,1.878,6.792,1.878,12.044,0ZM46.5,20.452a10.583,10.583,0,0,1-3.616-.357c-.469-.16-3.7-1.785-5.535-2.589a7.443,7.443,0,0,1-2.455-2.247,15.754,15.754,0,0,0-1.637-1.8c-1.376-1.246-2.63-1.22-3.8.458-2.317,3.31-2.087,5.929-.026,10.051q.508,1,.93,2.038c.119.3.372,1,.405,1.079a3.167,3.167,0,0,0,.2.435,8.425,8.425,0,0,0,1.506,1.748c.893.893,1.919,1.216,4.345,1.611.673.112.818.134,1.116.19,2.239.409,3.571,1,4.553,2.258a13.6,13.6,0,0,0,5.572,3.995c.2.089.409.186.67.3l.662.3a22.348,22.348,0,0,1,2.864,1.451,10.57,10.57,0,0,0,3.5,1.287c3.191.766,4.568,1.4,6.461,3.482S66,46.977,68.4,46.627c1.994-.294,3.954-1.12,8.764-3.526,2.343-1.172,2.392-2.894.558-5.044-1.257-1.466-1.309-1.51-7.216-6.115a41.115,41.115,0,0,1-6.186-5.535,8.864,8.864,0,0,1-1.845-3.087c-2.046-6.807-4.65-8.176-8.473-5.788-.725.454-2.459,1.692-2.671,1.823-1.25.8-2.425,1.1-4.836,1.1Zm0,.744c2.544,0,3.857-.331,5.237-1.213.234-.149,1.96-1.38,2.663-1.823,3.366-2.1,5.453-1,7.365,5.375a9.641,9.641,0,0,0,1.99,3.351,41.638,41.638,0,0,0,6.3,5.643c5.825,4.542,5.9,4.6,7.1,6.011,1.551,1.823,1.521,2.976-.327,3.9-4.728,2.362-6.654,3.177-8.533,3.452-2.15.312-3.787-.335-5.531-2.254-2.016-2.217-3.515-2.909-6.837-3.7a9.949,9.949,0,0,1-3.284-1.2,22.949,22.949,0,0,0-2.953-1.5l-.662-.3-.662-.3a12.928,12.928,0,0,1-5.3-3.772c-1.116-1.44-2.6-2.1-5.007-2.537-.309-.056-.45-.078-1.131-.19-2.269-.372-3.2-.662-3.935-1.4a8.1,8.1,0,0,1-1.384-1.585,2.849,2.849,0,0,1-.164-.35c-.022-.056-.279-.766-.405-1.079-.238-.6-.539-1.265-.956-2.1-1.949-3.9-2.157-6.249-.026-9.292.893-1.28,1.625-1.294,2.693-.331a15.607,15.607,0,0,1,1.57,1.73,7.937,7.937,0,0,0,2.723,2.451c1.793.781,5.066,2.429,5.591,2.607A11.172,11.172,0,0,0,46.5,21.2Zm4.724,3.2c-2.035,1.451-3.846,1.384-6.781.327-2-.722-2.2-.781-2.864-.781-.93,0-1.566.506-1.949,1.659-.617,1.852.863,3.169,4.575,4.717,1,.42,6.044,2.3,7.439,2.875a31.285,31.285,0,0,1,7.019,3.775c4.843,3.66,6.829,4.438,8.819,3.6a9.178,9.178,0,0,0,1.347-.736l.74-.476q.413-.266.833-.521c1.239-.744,1.049-1.592-.316-2.73-.5-.42-3.965-2.831-5.033-3.686a15.766,15.766,0,0,1-5.36-6.822c-1.142-3.143-1.819-4.5-2.529-4.981-.643-.431-1.25-.2-2.3.707-.234.208-1.265,1.146-1.529,1.376a25.937,25.937,0,0,1-2.109,1.692Zm.223.3a26.541,26.541,0,0,0,2.135-1.711c.272-.238,1.294-1.175,1.525-1.376.93-.8,1.395-.986,1.849-.681.617.413,1.28,1.748,2.388,4.8a16.124,16.124,0,0,0,5.475,6.986c1.082.867,4.542,3.273,5.029,3.682,1.2,1,1.324,1.551.361,2.128l-.841.521-.74.476a8.556,8.556,0,0,1-1.291.71c-1.823.77-3.7.026-8.451-3.556a31.666,31.666,0,0,0-7.1-3.824c-1.4-.577-6.435-2.455-7.439-2.872-3.534-1.477-4.888-2.678-4.363-4.255.335-1.008.837-1.413,1.6-1.41.6,0,.8.063,2.738.763,3.039,1.094,4.962,1.168,7.127-.376Z" transform="translate(0 0.01)" fill="#fff" opacity="0.166"/>
</svg>
